<svg width="111" height="105" viewBox="0 0 111 105" fill="none" xmlns="http://www.w3.org/2000/svg">
<path d="M25.3223 38.7281L29.1648 26.1845C29.66 23.7808 29.8778 20.9458 30.151 18.4995C30.287 17.7005 30.2798 16.8837 30.1297 16.0872C29.882 15.0498 29.1861 13.9269 29.7411 13.0132C30.2962 12.0996 31.8374 12.249 32.781 12.8809C34.0832 13.7348 34.9541 15.6902 33.9209 16.8685C33.5998 17.1441 33.2987 17.4423 33.0201 17.7608C32.6657 18.3073 32.7639 19.0417 32.8322 19.6693C33.1481 22.6579 32.5248 25.6465 31.91 28.6351L30.2022 36.8068C29.7753 38.7964 29.1178 41.0763 27.2136 41.8149C27.0748 41.8826 26.9233 41.9207 26.7689 41.9266C26.6146 41.9324 26.4606 41.906 26.317 41.849C26.1461 41.7513 26 41.6154 25.8901 41.452C25.4503 40.756 25.3692 39.5606 25.3223 38.7281Z" fill="#FCD4D0"/>
<path d="M25.3223 38.7281L29.1648 26.1845C29.66 23.7808 29.8778 20.9458 30.151 18.4995C30.287 17.7005 30.2798 16.8837 30.1297 16.0872C29.882 15.0498 29.1861 13.9269 29.7411 13.0132C30.2962 12.0996 31.8374 12.249 32.781 12.8809C34.0832 13.7348 34.9541 15.6902 33.9209 16.8685C33.5998 17.1441 33.2987 17.4423 33.0201 17.7608C32.6657 18.3073 32.7639 19.0417 32.8322 19.6693C33.1481 22.6579 32.5248 25.6465 31.91 28.6351L30.2022 36.8068C29.7753 38.7964 29.1178 41.0763 27.2136 41.8149C27.0748 41.8826 26.9233 41.9207 26.7689 41.9266C26.6146 41.9324 26.4606 41.906 26.317 41.849C26.1461 41.7513 26 41.6154 25.8901 41.452C25.4503 40.756 25.3692 39.5606 25.3223 38.7281Z" fill="#FCD4D0"/>
<path d="M47.4382 70.7019C47.4749 73.1052 47.0379 75.4922 46.1522 77.7267C45.2664 79.9611 43.9492 81.9992 42.2757 83.7245C40.6023 85.4499 38.6054 86.8288 36.3991 87.7824C34.1928 88.736 31.8202 89.2458 29.4169 89.2825C27.0136 89.3192 24.6266 88.8822 22.3922 87.9964C20.1577 87.1107 18.1197 85.7934 16.3943 84.12C14.6689 82.4466 13.2901 80.4497 12.3364 78.2434C11.3828 76.0371 10.873 73.6645 10.8363 71.2612C10.8363 71.0733 10.8363 70.8897 10.8363 70.7019C10.827 70.2344 10.8455 69.7668 10.8918 69.3015C11.246 64.5773 13.4185 60.1746 16.9524 57.0195C20.4863 53.8643 25.1061 52.2027 29.8401 52.3841C34.5741 52.5655 39.0532 54.5758 42.3353 57.9921C45.6174 61.4084 47.4466 65.9645 47.4382 70.7019Z" fill="#4CD080"/>
<path opacity="0.14" d="M21.4461 79.0145C20.8399 81.6616 21.5785 84.4794 21.0192 87.1264C16.7912 85.0381 13.531 81.4002 11.9167 76.9694C11.827 76.0594 11.8485 75.1418 11.9808 74.237C12.1046 73.2636 12.2839 72.256 12.0107 71.3124C11.7462 70.5877 11.3623 69.9124 10.875 69.3143C11.0772 66.6387 11.8669 64.0406 13.1879 61.7049C14.5088 59.3693 16.3285 57.3537 18.5173 55.8016C18.5387 55.9245 18.5387 56.0501 18.5173 56.173L17.7317 59.6569C17.8897 60.6898 17.8897 61.7407 17.7317 62.7736C17.6479 63.2897 17.4515 63.7811 17.1563 64.2128C16.8612 64.6445 16.4745 65.0058 16.0239 65.2712C15.6864 65.4119 15.3583 65.5744 15.042 65.7579C14.7359 66.0043 14.482 66.309 14.2948 66.6545C13.7877 67.359 13.4103 68.1484 13.1805 68.9856C13.0673 69.4038 13.0607 69.8437 13.1614 70.2651C13.2621 70.6865 13.4668 71.076 13.7569 71.3978L18.8802 70.4073C19.4139 70.3048 20.0586 70.2323 20.4257 70.6336C20.8527 71.1118 20.588 71.8803 20.6862 72.525C20.8057 73.349 21.5401 73.9424 21.8816 74.7109C22.5007 76.0472 21.7791 77.5714 21.4461 79.0145Z" fill="#020202"/>
<path opacity="0.14" d="M16.8016 57.8722C16.0716 58.7261 15.3159 59.6355 15.0939 60.7328C15.0247 60.9683 15.0247 61.2188 15.0939 61.4543C15.1921 61.6401 15.3285 61.803 15.494 61.9325C15.6595 62.062 15.8505 62.1551 16.0545 62.2057C17.7898 62.872 19.6399 63.1884 21.498 63.1365C21.3913 64.1825 21.3443 65.395 22.1085 66.1251C22.3975 66.3773 22.7324 66.5715 23.0948 66.6972C24.2453 67.1502 25.4629 67.4099 26.6982 67.4657C27.7314 67.5126 28.7774 67.4102 29.8106 67.5254C31.0862 67.6651 32.3062 68.1231 33.3585 68.8575C33.6285 69.0205 33.8508 69.2517 34.0032 69.5278C34.1149 69.8261 34.1601 70.1452 34.1356 70.4628C34.1429 71.586 34.2862 72.7042 34.5625 73.793C34.84 74.8518 35.2883 75.9277 36.1763 76.5724C36.6464 76.8751 37.1585 77.1068 37.6963 77.2598L41.3466 78.5064C41.4349 78.5468 41.5343 78.5558 41.6284 78.5321C41.7183 78.4839 41.788 78.4051 41.8248 78.31C42.2304 77.5159 42.6317 76.6364 42.4652 75.7484C42.2987 74.8603 41.6113 74.2157 41.2911 73.4002C40.766 72.1194 41.1759 70.5994 40.7446 69.2759C40.4375 68.4738 39.9512 67.7524 39.3229 67.1668C38.2674 66.1255 37.145 65.1543 35.9629 64.2593C34.0843 62.7736 32.1801 61.2707 29.9857 60.2802C29.1062 59.8789 28.1242 59.516 27.6161 58.6962C27.0056 57.71 27.2703 56.3566 26.6128 55.4002C26.0749 54.6232 25.063 54.3243 24.1194 54.2731C22.5578 54.2263 21.0109 54.5883 19.6323 55.3234C18.3899 55.951 17.7067 56.8092 16.8016 57.8722Z" fill="#020202"/>
<path opacity="0.14" d="M47.4388 70.7019C47.4421 73.4697 46.8162 76.2021 45.6084 78.6925C44.4005 81.1828 42.6424 83.3661 40.4668 85.0771C40.2143 84.9115 39.998 84.6965 39.8306 84.4452C39.2842 83.617 39.4635 82.3105 40.3472 81.8409C40.0398 82.0031 38.8316 81.606 38.4687 81.5505L36.5859 81.2602C35.685 81.1193 34.1096 81.1791 33.5973 80.2697C33.5394 80.1437 33.4693 80.0235 33.3881 79.9111C33.2758 79.7969 33.1424 79.7055 32.9953 79.6421C32.4274 79.3646 31.7657 79.0529 31.6291 78.4339C31.5351 77.9813 31.7614 77.469 31.5266 77.0676C31.454 76.9438 31.343 76.8456 31.2704 76.7218C31.1913 76.5355 31.1616 76.3319 31.184 76.1308C31.2065 75.9296 31.2803 75.7376 31.3985 75.5733C32.1926 74.1858 33.8364 73.5112 35.416 73.2465C36.9957 72.9818 38.6267 73.0202 40.1637 72.5762C41.1328 72.2944 42.055 71.8248 43.0541 71.6881C43.6048 71.6113 44.2965 71.5515 44.4971 71.0349C44.6081 70.7403 44.4971 70.3988 44.6124 70.1042C44.6594 69.9761 44.7448 69.8651 44.7917 69.737C44.8223 69.6425 44.834 69.543 44.8261 69.444C44.8182 69.345 44.7909 69.2485 44.7457 69.1601C44.7005 69.0717 44.6383 68.993 44.5627 68.9286C44.4871 68.8643 44.3995 68.8154 44.305 68.7849C44.2575 68.7709 44.209 68.7609 44.1598 68.755C44.2879 68.4135 44.3904 67.9737 44.1214 67.7304C44.0268 67.661 43.9169 67.6155 43.8009 67.5977C43.685 67.5799 43.5665 67.5902 43.4554 67.6279C42.7979 67.7901 42.324 68.3452 41.7732 68.738C39.9459 70.0188 37.4398 69.5918 35.9156 68.0463C35.6683 67.828 35.4915 67.5412 35.4075 67.2223C35.3837 66.95 35.4453 66.677 35.5838 66.4413C35.7223 66.2056 35.9308 66.019 36.1803 65.9073C36.6806 65.6937 37.2203 65.5875 37.7642 65.5956C37.5636 64.2678 37.3373 62.9358 37.1537 61.6123C34.1139 62.4277 32.8843 59.5288 32.4573 57.1208C32.0304 54.7128 33.7382 53.8504 35.9412 53.7053C39.3362 55.0657 42.2459 57.4119 44.2952 60.4413C46.3444 63.4707 47.4394 67.0445 47.4388 70.7019Z" fill="#020202"/>
<path d="M33.9688 78.8224C33.9688 79.8299 35.5954 80.782 36.3895 81.0169C36.7215 81.0856 37.045 81.1901 37.3544 81.3285C37.507 81.404 37.6351 81.5209 37.7243 81.6659C37.8134 81.8109 37.8598 81.9781 37.8582 82.1483C37.8241 82.4428 37.585 82.6819 37.5209 82.968C37.4862 83.2192 37.5171 83.4751 37.6106 83.7109C37.9137 84.6886 39.1177 85.2948 39.4123 86.2725C41.0774 86.106 41.8288 86.2469 43.4768 85.9694L44.8515 85.0899C44.1599 83.8091 43.4725 82.5026 42.7766 81.2047C42.5118 80.6546 42.1837 80.1374 41.7989 79.6634C41.3445 79.1931 40.8307 78.784 40.2704 78.4466C38.8245 77.5064 37.32 76.6593 35.7662 75.9106C35.9754 76.0301 33.9688 78.5619 33.9688 78.8224Z" fill="url(#paint0_linear_544_58170)"/>
<path d="M34.9429 74.2498C34.7721 74.8048 34.6184 75.458 34.9429 75.9234C35.1015 76.1192 35.3114 76.2671 35.5492 76.3504C35.8261 76.4859 36.1357 76.5405 36.4423 76.508C36.7489 76.4755 37.0401 76.3573 37.2826 76.1668C37.5384 75.8846 37.719 75.5424 37.8077 75.172C38.2392 73.8172 38.5506 72.4272 38.7385 71.0178C38.7727 70.8891 38.7727 70.7537 38.7385 70.625C38.666 70.489 38.5503 70.3809 38.4097 70.3176C37.6711 69.9206 36.5141 69.6004 36.0999 70.4841C35.5577 71.6412 35.3101 73.0415 34.9429 74.2498Z" fill="#FCD4D0"/>
<path d="M37.1652 74.8945C37.3232 74.8735 37.484 74.8896 37.6348 74.9415C37.7366 74.9977 37.8254 75.0748 37.8952 75.1677L39.492 76.995C39.8037 77.3494 40.1324 77.8489 39.9189 78.2503C39.8441 78.3688 39.7434 78.4688 39.6243 78.5427C39.5053 78.6167 39.371 78.6627 39.2316 78.6772C38.4574 78.7556 37.6772 78.6073 36.9858 78.2503C36.4906 78.0325 36.0081 77.7977 35.53 77.5415C35.173 77.3779 34.8621 77.1286 34.6248 76.8157C34.2619 76.2522 34.1509 74.8945 34.8041 74.4718C35.1286 74.2626 35.4147 74.412 35.7306 74.5615C36.175 74.7864 36.6671 74.9007 37.1652 74.8945Z" fill="#A5A6F6"/>
<path d="M43.809 80.4661C43.8213 80.5699 43.8096 80.675 43.7749 80.7735C43.7198 80.8705 43.6403 80.9515 43.5443 81.0083C43.2394 81.2192 42.8815 81.3405 42.5111 81.3584C42.3276 81.3668 42.1446 81.3327 41.9765 81.2586C41.8084 81.1845 41.6596 81.0726 41.542 80.9315C41.3713 80.6565 41.2689 80.3447 41.2431 80.0221C41.1081 79.3272 41.0409 78.6209 41.0424 77.913C41.0329 77.8715 41.0327 77.8285 41.042 77.7869C41.0512 77.7454 41.0695 77.7065 41.0957 77.6729C41.1219 77.6394 41.1552 77.6121 41.1933 77.5931C41.2313 77.574 41.2731 77.5637 41.3157 77.5629C41.892 77.4391 43.0235 77.136 43.3309 77.849C43.626 78.691 43.7874 79.5741 43.809 80.4661Z" fill="#FCD4D0"/>
<path d="M46.2476 80.3935C46.7409 80.4183 47.2283 80.5132 47.6949 80.6753C47.9298 80.7577 48.1452 80.8874 48.3281 81.0563C48.5109 81.2252 48.6572 81.4297 48.758 81.6573C48.8509 81.8842 48.8614 82.1364 48.7879 82.3703C48.6293 82.7102 48.349 82.9784 48.0023 83.1217C46.3579 84.0145 44.4942 84.4231 42.6271 84.3001C42.1465 84.3164 41.6788 84.1431 41.3249 83.8176C41.063 83.4268 40.9411 82.9588 40.9791 82.4898L40.915 80.2782C41.342 80.2142 41.7134 80.4875 42.1105 80.6241C42.7979 80.8589 43.0668 80.2953 43.6347 80.1587C44.3733 79.9879 45.4919 80.3167 46.2476 80.3935Z" fill="#A5A6F6"/>
<path d="M37.1652 74.8945C37.3232 74.8735 37.484 74.8896 37.6348 74.9415C37.7366 74.9977 37.8254 75.0748 37.8952 75.1677L39.492 76.995C39.8037 77.3494 40.1324 77.8489 39.9189 78.2503C39.8441 78.3688 39.7434 78.4688 39.6243 78.5427C39.5053 78.6167 39.371 78.6627 39.2316 78.6772C38.4574 78.7556 37.6772 78.6073 36.9858 78.2503C36.4906 78.0325 36.0081 77.7977 35.53 77.5415C35.173 77.3779 34.8621 77.1286 34.6248 76.8157C34.2619 76.2522 34.1509 74.8945 34.8041 74.4718C35.1286 74.2626 35.4147 74.412 35.7306 74.5615C36.175 74.7864 36.6671 74.9007 37.1652 74.8945Z" fill="#030319"/>
<path d="M34.4008 75.2275C34.4258 75.3943 34.4703 75.5577 34.5332 75.7142C34.6023 75.9214 34.6939 76.1204 34.8064 76.3077C34.96 76.5245 35.1508 76.7125 35.37 76.8627C35.9201 77.2328 36.5213 77.5204 37.1546 77.7166C38.1157 78.091 39.1597 78.2002 40.1774 78.0325C40.0852 78.2573 39.9113 78.4389 39.6907 78.5406C39.4717 78.6397 39.235 78.6934 38.9948 78.6985C38.0563 78.6715 37.1375 78.4228 36.3136 77.9727L35.37 77.5458C35.2376 77.4871 35.1105 77.4171 34.99 77.3366C34.8224 77.2118 34.6779 77.0586 34.5631 76.884C34.349 76.5705 34.2182 76.2075 34.1831 75.8295C34.166 75.6464 34.1789 75.4618 34.2215 75.283C34.2215 75.2061 34.3325 74.856 34.435 74.856C34.3982 74.9762 34.3866 75.1026 34.4008 75.2275Z" fill="#473F47"/>
<path d="M46.2476 80.3935C46.7409 80.4183 47.2283 80.5132 47.6949 80.6753C47.9298 80.7577 48.1452 80.8874 48.3281 81.0563C48.5109 81.2252 48.6572 81.4297 48.758 81.6573C48.8509 81.8842 48.8614 82.1364 48.7879 82.3703C48.6293 82.7102 48.349 82.9784 48.0023 83.1217C46.3579 84.0145 44.4942 84.4231 42.6271 84.3001C42.1465 84.3164 41.6788 84.1431 41.3249 83.8176C41.063 83.4268 40.9411 82.9588 40.9791 82.4898L40.915 80.2782C41.342 80.2142 41.7134 80.4875 42.1105 80.6241C42.7979 80.8589 43.0668 80.2953 43.6347 80.1587C44.3733 79.9879 45.4919 80.3167 46.2476 80.3935Z" fill="#030319"/>
<path d="M40.3342 55.9681C40.8143 56.0579 41.2587 56.283 41.6151 56.617C42.042 57.0781 42.042 57.7612 42.042 58.3846C42.0328 62.8528 41.2021 67.2813 39.5913 71.4491C39.5548 71.6027 39.4876 71.7473 39.3937 71.8743C39.2997 72.0012 39.1811 72.1078 39.0449 72.1877C38.799 72.26 38.536 72.248 38.2977 72.1535C37.3326 71.8842 36.382 71.565 35.45 71.1972L36.7095 62.7053C36.7697 62.4678 36.7563 62.2177 36.671 61.988C36.5777 61.8285 36.4474 61.6938 36.2911 61.5952C34.8534 60.5306 33.3329 59.5826 31.7441 58.7603C30.4633 58.1071 29.0287 57.3642 28.6829 55.9638C28.6119 55.7294 28.5973 55.4815 28.6404 55.2403C28.6834 54.9992 28.7828 54.7716 28.9306 54.5762C29.1302 54.3764 29.3665 54.217 29.6265 54.1066C30.4804 53.6796 31.5264 53.146 32.4955 53.2527C33.264 53.3296 33.5629 53.7864 34.2033 54.1066C36.0136 55.0501 38.3916 55.3917 40.3342 55.9681Z" fill="white"/>
<path d="M36.4535 71.5344C36.3468 71.5003 36.7225 69.4979 36.7566 69.2972C36.825 68.9045 37.1195 67.1625 37.4312 68.3708C37.4817 68.6357 37.5131 68.904 37.5251 69.1734C37.5637 69.4949 37.6193 69.8142 37.6917 70.1298C37.7316 70.3776 37.8049 70.6189 37.9094 70.847C38.1075 71.1817 38.3719 71.4723 38.6864 71.7009C38.7451 71.7636 38.8234 71.8043 38.9084 71.8162C39.0323 71.8162 39.1262 71.7009 39.1774 71.5857C39.3057 71.2274 39.3609 70.847 39.3397 70.4671C39.4037 68.3324 40.5095 66.4709 40.4369 64.2807C40.4369 63.747 39.9288 63.1023 39.7154 62.6113C39.5263 62.2148 39.383 61.7979 39.2884 61.3689C39.0194 59.913 39.8776 58.4913 39.9971 57.0141L37.1025 58.4358L35.4502 71.2142L36.4535 71.5344Z" fill="url(#paint1_linear_544_58170)"/>
<path d="M28.9303 54.7214C28.35 55.0461 27.7529 55.3396 27.1414 55.6009C26.9792 55.6735 26.8169 55.7418 26.6504 55.8058C24.7709 56.5791 22.7286 56.8725 20.7074 56.6597C20.5025 56.6341 20.2975 56.5999 20.0926 56.5573C18.9277 56.371 17.8613 55.7926 17.0698 54.9178C16.1263 53.7864 15.9043 52.211 15.8445 50.7295V50.3025C15.7922 48.4553 15.9353 46.6078 16.2714 44.7907C16.6198 42.6297 17.4565 40.5767 18.7178 38.7878C19.5683 37.6372 20.6748 36.7003 21.9498 36.0511C23.2691 35.3808 24.8317 35.0393 26.2406 35.5046C26.9716 35.7743 27.6473 36.1751 28.2344 36.6873C28.4539 36.8512 28.6506 37.0436 28.8193 37.2594C29.0557 37.6054 29.2185 37.9963 29.2975 38.4079C29.8824 40.9695 29.0712 43.5867 28.4436 46.1313C28.0978 47.5829 27.8331 49.1797 28.4948 50.5117C29.4384 52.3945 31.7225 53.163 28.9303 54.7214Z" fill="#0F92BF"/>
<path d="M28.9305 54.7299C28.8793 55.3191 28.1364 55.5369 27.543 55.5838L27.1416 55.6052C25.0083 55.7288 22.8685 55.533 20.793 55.0245C20.5376 54.9344 20.2611 54.9225 19.9989 54.9904C19.9589 55.0043 19.9215 55.0245 19.8879 55.0501V55.191C19.8204 55.4237 19.8065 55.6686 19.8471 55.9075C19.8878 56.1463 19.982 56.3728 20.1227 56.5701C18.9578 56.3838 17.8914 55.8054 17.0999 54.9306C16.1564 53.7992 15.9343 52.2238 15.8746 50.7423V50.3153C15.8468 49.2213 15.881 48.1266 15.977 47.0364C16.0081 46.0612 16.1514 45.0927 16.404 44.1503C17.0203 42.3618 18.1162 40.7771 19.5719 39.5692C19.7073 39.4427 19.8651 39.3428 20.0373 39.2746C20.2319 39.2262 20.4344 39.2187 20.6321 39.2525C20.8298 39.2863 21.0183 39.3607 21.1858 39.471C21.4772 39.6106 21.7361 39.8099 21.9457 40.0559C22.2153 40.4293 22.3643 40.8762 22.3727 41.3367C22.3857 41.96 22.3298 42.5829 22.2062 43.1939C22.0784 44.1084 21.8814 45.0118 21.617 45.8965C21.49 46.2196 21.3942 46.5541 21.3309 46.8955C21.2796 47.3349 21.3567 47.7798 21.5529 48.1763C21.7109 48.535 21.7365 48.9107 21.8646 49.2864C22.1287 50.0588 22.5519 50.7671 23.107 51.3656C24.2639 52.5843 25.7897 53.3885 27.449 53.654C27.7947 53.6842 28.1334 53.7693 28.4523 53.9059C28.5992 53.9871 28.7213 54.1066 28.8055 54.2518C28.8897 54.3969 28.9329 54.5622 28.9305 54.7299Z" fill="url(#paint2_linear_544_58170)"/>
<path d="M23.517 39.1507C23.7428 39.4356 24.026 39.6698 24.3481 39.8382C24.6703 40.0066 25.0242 40.1055 25.387 40.1285C25.5016 40.1413 25.6172 40.1158 25.7157 40.0559C25.819 39.9511 25.8772 39.8102 25.878 39.6631C25.9121 39.3685 25.9548 38.9928 25.9847 38.6171C26.0146 38.2414 26.0744 37.7632 26.1171 37.4643C26.2032 36.6142 26.5256 35.8053 27.0478 35.1289C27.1542 34.9814 27.2774 34.8467 27.415 34.7276C28.3158 33.9164 24.6526 34.2366 24.1702 33.1308C23.6152 33.8524 23.6664 34.8642 23.4188 35.748C23.2534 36.1785 23.1109 36.6175 22.9918 37.063C22.9288 37.4284 22.9429 37.8029 23.0333 38.1625C23.1238 38.5221 23.2885 38.8587 23.517 39.1507Z" fill="#FCD4D0"/>
<path d="M25.9383 38.7878L25.9853 38.617C26.0365 38.1901 26.0749 37.7632 26.1176 37.4643C26.2038 36.6142 26.5262 35.8052 27.0484 35.1289L27.074 35.0393C27.074 35.0393 24.1707 33.1308 23.8591 35.3637C23.5474 37.5966 25.9383 38.7878 25.9383 38.7878Z" fill="url(#paint3_linear_544_58170)"/>
<path d="M28.9646 33.8054C29.0202 34.2684 28.9339 34.7374 28.717 35.1503C28.6011 35.3168 28.4566 35.4614 28.29 35.5772C27.1373 36.4311 25.4039 36.2731 24.2597 35.3723C23.7042 34.8961 23.2563 34.3072 22.9457 33.6448C22.635 32.9823 22.4688 32.2614 22.458 31.5298C22.3774 30.7673 22.5929 30.0031 23.06 29.3951C23.3439 29.1195 23.6922 28.9194 24.0733 28.8127C24.4543 28.7061 24.8559 28.6964 25.2416 28.7845C26.2942 29.0322 27.2531 29.5776 28.004 30.3557C28.7426 31.184 28.9262 32.7594 28.9646 33.8054Z" fill="#FCD4D0"/>
<path d="M39.4335 61.894C40.0326 62.6679 40.504 63.5328 40.8296 64.4557C42.6496 68.9285 43.8296 73.6357 44.3348 78.4381C42.845 78.626 41.3375 78.626 39.8476 78.4381C39.7308 75.0363 39.2135 71.6601 38.3064 68.3793C38.1487 67.6769 37.8745 67.0059 37.4952 66.394C36.8334 65.4163 35.7447 64.8528 34.6987 64.3234C32.2896 63.1273 29.7684 62.172 27.1717 61.4714C26.0787 61.164 24.9772 60.8865 23.9013 60.515C22.9736 60.2384 22.1051 59.7926 21.3396 59.2C20.9572 58.9005 20.6385 58.5275 20.4024 58.103C20.1663 57.6784 20.0175 57.2109 19.9648 56.728C19.9648 56.9757 25.4041 56.728 25.9122 56.6512C27.62 56.4676 29.618 55.4771 31.3002 56.1773C32.6152 56.7238 33.8149 57.8637 34.9975 58.6493C36.4961 59.627 38.2722 60.5406 39.4335 61.894Z" fill="white"/>
<path d="M31.6845 61.5311L22.2148 56.8348L33.1745 52.8855L41.8073 56.7152L31.6845 61.5311Z" fill="#105D38"/>
<path d="M31.7357 60.8181L23.833 56.8945L32.9824 53.5985L40.1935 56.7963L31.7357 60.8181Z" fill="#4CD080"/>
<path d="M18.5383 41.4135C18.5169 41.5758 18.4956 41.738 18.4785 41.9003C18.2223 44.3082 18.4529 46.6778 18.5425 49.0772C18.598 50.5587 18.7902 53.3893 20.34 54.1493C23.2517 55.571 28.8532 55.0245 28.8532 55.0245C29.5024 54.9219 30.1653 54.948 30.8044 55.1014C31.1545 55.2124 31.4747 55.4002 31.812 55.5283C33.0373 56.0065 34.4078 55.7631 35.6972 55.5283C35.9205 55.5027 36.1359 55.4299 36.329 55.3148C36.8286 54.9733 36.8072 54.1621 36.4358 53.6839C36.0163 53.2461 35.4722 52.948 34.8774 52.83C33.2493 52.2877 31.5006 52.2196 29.8352 52.6336C29.6225 52.7058 29.4058 52.7657 29.1863 52.8129C28.9295 52.8549 28.6694 52.8735 28.4092 52.8685H26.4282C24.1569 52.8898 22.0136 52.8983 21.672 50.1958C21.544 49.1963 21.5183 48.1863 21.5952 47.1816C21.7318 45.3671 22.1972 43.5696 22.099 41.7508C22.0891 41.1741 21.9428 40.6079 21.672 40.0986C21.5388 39.8475 21.3431 39.635 21.1038 39.4817C20.8644 39.3284 20.5896 39.2394 20.3058 39.2233C20.0086 39.2463 19.7225 39.3466 19.4761 39.5144C19.2297 39.6822 19.0315 39.9115 18.9012 40.1797C18.7111 40.5674 18.5883 40.9846 18.5383 41.4135Z" fill="#FCD4D0"/>
<path d="M45.3639 48.0739L33.2984 54.3115L31.6846 61.5311L41.8074 56.7152L45.3639 48.0739Z" fill="#4CD080"/>
<path d="M29.0928 28.6821C29.0399 28.6078 28.9749 28.5428 28.9006 28.4899C28.9818 28.4538 29.0497 28.3933 29.0949 28.3168C29.1401 28.2402 29.1602 28.1515 29.1525 28.063C29.1269 27.8837 28.9988 27.8709 28.8708 27.7983C28.7427 27.7257 28.811 27.6488 28.7213 27.508C28.657 27.4272 28.5634 27.3751 28.4609 27.3628L27.5558 27.1322C27.5558 27.017 27.5857 26.8804 27.5003 26.8035C27.4149 26.7267 27.1715 26.8035 26.9965 26.7608C26.7488 26.7224 26.6378 26.4321 26.4585 26.2527C26.0572 25.8557 25.7925 26.2527 25.4296 26.3168C25.0667 26.3808 24.9215 25.9923 24.5031 25.9368C24.1757 25.912 23.8468 25.9571 23.5382 26.0692C23.1966 26.1467 22.8797 26.3081 22.616 26.5388C22.4322 26.7474 22.2876 26.9875 22.1891 27.2475C22.0857 27.1703 21.9561 27.1368 21.8283 27.1544C21.7004 27.172 21.5846 27.2392 21.506 27.3414L21.4676 27.4055C21.3864 27.5805 21.4163 27.7983 21.301 27.9477C21.2144 27.9392 21.1272 27.9392 21.0406 27.9477C20.9546 27.9701 20.8745 28.0109 20.8058 28.0673C20.7361 28.1271 20.6798 28.201 20.6408 28.2842C20.6018 28.3673 20.5809 28.4579 20.5795 28.5497C20.4459 28.5169 20.3054 28.5273 20.1782 28.5796C20.2467 28.4559 20.2943 28.3218 20.3191 28.1825C20.334 28.1303 20.3355 28.0752 20.3236 28.0223C20.3116 27.9693 20.2866 27.9202 20.2508 27.8794C20.1654 27.8111 19.9989 27.8794 20.033 27.9904C20.0513 27.9475 20.061 27.9015 20.0614 27.8548C20.0619 27.8082 20.0531 27.762 20.0357 27.7187C20.0182 27.6755 19.9924 27.6361 19.9597 27.6029C19.927 27.5697 19.8881 27.5432 19.8452 27.525C19.7557 27.4956 19.6599 27.4912 19.5681 27.5122C19.4763 27.5333 19.392 27.5791 19.3243 27.6446C19.2602 27.5848 19.3713 27.4738 19.3456 27.3884C19.3337 27.3586 19.3146 27.3323 19.2901 27.3116C19.176 27.2037 19.0447 27.1157 18.9016 27.0511C18.8323 27.0211 18.7562 27.0101 18.6812 27.0191C18.6062 27.0281 18.5349 27.0568 18.4747 27.1024C18.4234 26.7864 18.1502 26.304 17.7574 26.3979C17.6421 26.4235 17.5439 26.5601 17.6037 26.6669C17.4641 26.5148 17.2936 26.3942 17.1036 26.3132C16.9137 26.2322 16.7086 26.1927 16.5022 26.1972C16.3613 26.1972 16.1692 26.3125 16.2418 26.4363C16.0602 26.3011 15.853 26.2042 15.6328 26.1513C15.4127 26.0985 15.1841 26.0909 14.9609 26.1289C14.9212 26.1275 14.882 26.1382 14.8484 26.1595C14.8149 26.1809 14.7886 26.2119 14.7731 26.2485C14.7517 26.3211 14.8755 26.4022 14.9054 26.3296C14.7933 26.3126 14.6787 26.3266 14.574 26.3703C14.4694 26.414 14.3787 26.4856 14.312 26.5772C14.2017 26.7028 14.143 26.8656 14.1477 27.0327C14.1525 27.1998 14.2203 27.3589 14.3376 27.4781C14.598 27.6915 15.0933 27.4781 15.025 27.1322C15.118 27.2465 15.2492 27.3232 15.3943 27.3483C15.5395 27.3734 15.6888 27.3452 15.8148 27.2689C15.8479 27.4386 15.9469 27.5883 16.0901 27.6851C16.2334 27.782 16.4092 27.818 16.579 27.7855C16.6591 27.7691 16.7357 27.7388 16.8053 27.6958C16.8445 27.8601 16.9295 28.0099 17.0504 28.1278C17.1713 28.2457 17.3232 28.3269 17.4884 28.3618C17.8198 28.4259 18.1604 28.4259 18.4917 28.3618C18.4067 28.4352 18.3056 28.4877 18.1966 28.5151C18.0877 28.5426 17.9738 28.5442 17.8641 28.5198C17.7589 28.4943 17.6491 28.4943 17.5439 28.5198C17.4313 28.5799 17.3313 28.661 17.2493 28.7589C17.2328 28.7768 17.2142 28.7926 17.1938 28.8059C17.1412 28.8282 17.0845 28.8397 17.0273 28.8397C16.9701 28.8397 16.9135 28.8282 16.8608 28.8059C16.7114 28.7545 16.5491 28.7545 16.3997 28.8059C16.3265 28.8344 16.2647 28.8863 16.2239 28.9534C16.183 29.0205 16.1653 29.0992 16.1734 29.1773C16.0803 29.158 15.9844 29.1573 15.891 29.1751C15.7976 29.193 15.7087 29.2292 15.6293 29.2816C15.55 29.334 15.4818 29.4015 15.4286 29.4803C15.3754 29.5591 15.3384 29.6477 15.3196 29.7409C15.3088 29.8116 15.3088 29.8836 15.3196 29.9543C15.2253 29.923 15.1234 29.9227 15.0289 29.9534C14.9344 29.9842 14.8522 30.0443 14.7944 30.1251C14.7455 30.2008 14.7108 30.2847 14.6919 30.3727C14.6571 30.534 14.6413 30.6988 14.645 30.8637C14.6417 30.9305 14.6564 30.9968 14.6877 31.0559C14.7028 31.0856 14.7273 31.1097 14.7573 31.1243C14.7874 31.139 14.8214 31.1434 14.8542 31.137C14.8088 31.1884 14.7747 31.2489 14.7541 31.3143C14.7336 31.3797 14.7269 31.4488 14.7346 31.517C14.751 31.5715 14.7803 31.6213 14.82 31.6621C14.8876 31.7498 14.9821 31.8128 15.089 31.8414C15.1419 31.856 15.1976 31.8566 15.2507 31.8431C15.3039 31.8297 15.3526 31.8026 15.3921 31.7646C15.5031 31.6579 15.5031 31.4828 15.5971 31.3376C15.5867 31.382 15.5883 31.4284 15.6019 31.4719C15.6154 31.5154 15.6402 31.5546 15.6739 31.5853C15.7473 31.644 15.8408 31.6716 15.9344 31.6621C15.9604 31.6601 15.9854 31.6512 16.0069 31.6365C16.0245 31.6184 16.0377 31.5965 16.0454 31.5725C16.115 31.3881 16.1254 31.1867 16.0752 30.9961C16.1167 31.0337 16.1673 31.0598 16.222 31.0718C16.2767 31.0838 16.3335 31.0813 16.3869 31.0644C16.4398 31.0454 16.4865 31.0123 16.5218 30.9686C16.5572 30.925 16.58 30.8724 16.5876 30.8168C16.5833 30.7571 16.5833 30.6972 16.5876 30.6375C16.5876 30.5521 16.7157 30.5264 16.784 30.4795C16.8794 30.4143 16.9693 30.3415 17.0529 30.2617C17.0914 30.2233 17.4799 29.775 17.4415 29.7451C17.5408 29.8092 17.6604 29.8342 17.7771 29.8152C17.8938 29.7963 17.9993 29.7348 18.0733 29.6427C18.14 29.7612 18.2464 29.8523 18.3737 29.9C18.5011 29.9477 18.6412 29.9488 18.7693 29.9031C18.3331 30.2063 17.9322 30.5571 17.5738 30.9491C17.218 31.3382 17.0043 31.8363 16.9676 32.3623C16.9542 32.6294 17.0359 32.8926 17.1981 33.1052C17.2824 33.2077 17.3946 33.2837 17.5211 33.3238C17.6477 33.364 17.7831 33.3666 17.9111 33.3315C17.9063 33.2922 17.8928 33.2545 17.8715 33.2212C17.8502 33.1879 17.8217 33.1597 17.7882 33.1388C17.7546 33.1179 17.7167 33.1049 17.6774 33.1005C17.6381 33.0962 17.5983 33.1007 17.561 33.1137C17.4871 33.1454 17.421 33.1927 17.3672 33.2524C17.3134 33.3121 17.2732 33.3828 17.2493 33.4596C17.2052 33.5537 17.1823 33.6565 17.1823 33.7606C17.1823 33.8646 17.2052 33.9674 17.2493 34.0615C17.2942 34.1503 17.3724 34.2177 17.4668 34.2489C17.5613 34.2801 17.6642 34.2726 17.7531 34.2281C17.8323 34.1568 17.8975 34.0714 17.9453 33.9762C18.0988 33.8041 18.2613 33.6402 18.432 33.4852C18.5128 33.4047 18.5637 33.299 18.5761 33.1856C18.5886 33.0722 18.5618 32.9579 18.5003 32.8618C18.7394 32.7466 18.7308 32.3879 18.5985 32.1574C18.4346 31.9514 18.2916 31.7298 18.1715 31.4956H19.0596L19.4865 31.1028C19.6686 31.2183 19.8729 31.2943 20.0861 31.326C20.2994 31.3576 20.5169 31.3441 20.7247 31.2864C20.6894 31.4949 20.7198 31.7091 20.8116 31.8995C20.9033 32.09 21.052 32.2472 21.237 32.3495C21.1644 32.405 21.062 32.4733 21.0748 32.5801C21.0822 32.6146 21.0994 32.6463 21.1244 32.6713C21.1494 32.6963 21.1811 32.7135 21.2157 32.7209C21.2834 32.7338 21.3529 32.7338 21.4206 32.7209C21.4505 32.785 21.3779 32.8533 21.3864 32.9259C21.3957 32.9673 21.42 33.0039 21.4547 33.0283C21.5339 33.0921 21.6255 33.1386 21.7237 33.165C21.705 33.1895 21.6949 33.2195 21.6949 33.2504C21.6949 33.2812 21.705 33.3112 21.7237 33.3357C21.7582 33.3863 21.8074 33.425 21.8646 33.4467C22.0052 33.52 22.1565 33.5704 22.3129 33.5962C22.2949 33.6822 22.3038 33.7716 22.3385 33.8523C22.3539 33.8934 22.3834 33.9275 22.4218 33.9487C22.4602 33.9698 22.5048 33.9765 22.5477 33.9676C22.5861 33.9676 22.6203 33.9249 22.6587 33.9335C22.6826 33.9411 22.7035 33.956 22.7185 33.9762C22.7897 34.0568 22.8435 34.1513 22.8765 34.2537C22.8869 34.3021 22.9057 34.3483 22.932 34.3903C22.9714 34.4414 23.0248 34.48 23.0857 34.5013C23.1668 34.5312 23.265 34.5568 23.329 34.5013C23.3499 34.4788 23.3642 34.4509 23.3702 34.4207C23.3762 34.3906 23.3738 34.3594 23.3632 34.3305C23.3417 34.2748 23.3114 34.2229 23.2735 34.1768C23.2948 34.1869 23.3191 34.1891 23.3418 34.1828C23.3645 34.1765 23.3842 34.1623 23.3973 34.1427C23.4144 34.0972 23.4144 34.0472 23.3973 34.0018C23.3465 33.8835 23.2773 33.774 23.1924 33.6773C23.1882 33.6679 23.186 33.6577 23.186 33.6474C23.186 33.6371 23.1882 33.6269 23.1924 33.6175C23.195 33.6074 23.1998 33.5979 23.2065 33.5898C23.2131 33.5817 23.2214 33.5752 23.2308 33.5706C23.3034 33.4894 23.2308 33.3571 23.1881 33.2632C23.1454 33.1692 23.0472 33.0625 23.0942 32.96C23.1192 32.9167 23.1493 32.8766 23.1839 32.8405C23.2308 32.7764 23.2308 32.6612 23.2906 32.6142C23.3198 32.5979 23.354 32.5932 23.3865 32.6012C23.419 32.6091 23.4472 32.629 23.4656 32.6569C23.5083 32.7081 23.5254 32.7764 23.5638 32.8277C23.6399 32.9027 23.7245 32.9686 23.8157 33.0241C23.8798 33.0838 23.9267 33.1692 23.9951 33.229C24.0159 33.257 24.0447 33.2779 24.0778 33.289C24.1108 33.3001 24.1465 33.3008 24.1799 33.2911C24.2134 33.2813 24.2431 33.2615 24.265 33.2344C24.2869 33.2073 24.3 33.1741 24.3025 33.1393C24.3093 33.0822 24.302 33.0243 24.2812 32.9707C24.2603 32.9171 24.2266 32.8694 24.1829 32.8319C24.1493 32.8093 24.1191 32.782 24.0933 32.7508C24.0791 32.7358 24.0713 32.7159 24.0713 32.6953C24.0713 32.6747 24.0791 32.6549 24.0933 32.6398C24.1102 32.6426 24.1276 32.64 24.1429 32.6324C24.1582 32.6247 24.1708 32.6124 24.1786 32.5971C24.1829 32.5832 24.1829 32.5683 24.1786 32.5544C24.1708 32.5143 24.1515 32.4772 24.1231 32.4477C24.1231 32.4477 24.089 32.4135 24.0933 32.3922C24.089 32.3812 24.089 32.369 24.0933 32.358C24.1359 32.2855 24.1957 32.2214 24.2341 32.1488C24.2642 32.0912 24.2712 32.0243 24.2538 31.9616C24.2364 31.899 24.1958 31.8454 24.1402 31.8116C24.2257 31.8655 24.3275 31.8874 24.4275 31.8733C24.5276 31.8592 24.6194 31.8101 24.6867 31.7347C24.8182 31.5842 24.9144 31.4062 24.9685 31.2138C24.9985 31.2365 25.0327 31.2531 25.0691 31.2626C25.1055 31.2721 25.1434 31.2744 25.1806 31.2692C25.2179 31.264 25.2538 31.2516 25.2863 31.2326C25.3187 31.2136 25.3471 31.1883 25.3698 31.1583C25.3925 31.1283 25.4091 31.0942 25.4186 31.0578C25.4281 31.0214 25.4303 30.9834 25.4252 30.9462C25.42 30.9089 25.4076 30.873 25.3886 30.8406C25.3695 30.8081 25.3443 30.7797 25.3143 30.757H25.2802C25.3914 30.813 25.5111 30.8505 25.6345 30.868C25.6967 30.8762 25.76 30.8684 25.8183 30.8452C25.8766 30.822 25.928 30.7843 25.9675 30.7357C26.0743 30.5862 26.0188 30.3514 26.1597 30.2319C26.3771 30.4216 26.6131 30.589 26.8641 30.7314C27.0651 30.7975 27.2841 30.7811 27.4731 30.6859C27.662 30.5906 27.8054 30.4242 27.8717 30.2233C27.8717 30.2233 27.8717 30.2233 27.8717 30.1977C27.9764 30.2669 28.0959 30.3104 28.2206 30.3245C28.3453 30.3386 28.4715 30.3229 28.589 30.2788C28.6826 30.2057 28.7496 30.1038 28.7797 29.9889C28.8098 29.8739 28.8013 29.7523 28.7555 29.6427C28.8832 29.6274 29.0012 29.5669 29.0881 29.4722C29.1751 29.3774 29.2252 29.2546 29.2294 29.1261C29.2347 28.967 29.1866 28.8107 29.0928 28.6821Z" fill="#030319"/>
<path d="M41.0381 83.1687C41.0381 83.1687 41.465 84.0226 44.3512 83.5358C47.2373 83.0491 48.595 82.1483 48.7572 81.6402C48.8142 81.7369 48.8516 81.8439 48.8672 81.955C48.8828 82.0662 48.8763 82.1793 48.8482 82.288C48.82 82.3966 48.7707 82.4986 48.7031 82.5882C48.6355 82.6778 48.5509 82.7532 48.4541 82.81C47.7326 83.237 44.9361 85.1582 41.5291 83.9799C41.5291 83.9969 41.1021 83.8774 41.0381 83.1687Z" fill="#473F47"/>
<path d="M22.8212 32.3068C22.7648 32.3089 22.7101 32.3266 22.6633 32.3581C22.5599 32.426 22.4779 32.5218 22.4265 32.6343C22.3752 32.7469 22.3566 32.8716 22.373 32.9942C22.4077 33.242 22.518 33.4731 22.6889 33.656C22.7577 33.7449 22.8451 33.8178 22.9451 33.8694C23.0805 33.9252 23.2255 33.9542 23.372 33.9548C23.4282 33.9676 23.4866 33.9676 23.5428 33.9548C23.5994 33.9237 23.6466 33.8779 23.6797 33.8224C23.7127 33.7669 23.7303 33.7035 23.7306 33.6389C23.753 33.3306 23.6863 33.0224 23.5385 32.7508C23.4914 32.6637 23.4183 32.5936 23.3293 32.5502C23.1801 32.4324 23.0066 32.3492 22.8212 32.3068Z" fill="#FCD4D0"/>
<path d="M19.8152 29.0407C19.645 29.5275 19.5625 30.0407 19.5718 30.5564C19.5474 30.8355 19.5838 31.1166 19.6786 31.3804C19.7646 31.555 19.8737 31.7173 20.003 31.8628C20.1312 31.8746 20.2603 31.8574 20.3808 31.8123C20.5013 31.7672 20.6101 31.6954 20.6989 31.6024C20.743 31.5584 20.7753 31.5041 20.7929 31.4444C20.8398 31.2822 20.7288 31.1285 20.6392 30.9833C20.3739 30.5007 20.311 29.9326 20.4641 29.4036C20.5367 29.1133 21.0448 28.3362 20.3915 28.4601C20.2532 28.4983 20.1273 28.572 20.0262 28.6738C19.9251 28.7756 19.8524 28.9021 19.8152 29.0407Z" fill="#A5A6F6"/>
<path d="M32.2154 95.3511H31.7316C31.6675 95.3511 31.606 95.3256 31.5606 95.2803C31.5152 95.2349 31.4898 95.1734 31.4898 95.1092C31.4898 95.0451 31.5152 94.9836 31.5606 94.9382C31.606 94.8928 31.6675 94.8673 31.7316 94.8673H32.2154C32.2795 94.8673 32.3411 94.8928 32.3864 94.9382C32.4318 94.9836 32.4573 95.0451 32.4573 95.1092C32.4573 95.1734 32.4318 95.2349 32.3864 95.2803C32.3411 95.3256 32.2795 95.3511 32.2154 95.3511ZM34.6342 95.3511C34.57 95.3511 34.5085 95.3256 34.4631 95.2803C34.4178 95.2349 34.3923 95.1734 34.3923 95.1092C34.3923 95.0451 34.4178 94.9836 34.4631 94.9382C34.5085 94.8928 34.57 94.8673 34.6342 94.8673H35.1179C35.1821 94.8673 35.2436 94.8928 35.289 94.9382C35.3343 94.9836 35.3598 95.0451 35.3598 95.1092C35.3598 95.1734 35.3343 95.2349 35.289 95.2803C35.2436 95.3256 35.1821 95.3511 35.1179 95.3511H34.6342ZM29.3129 95.2931H28.8291C28.7973 95.2918 28.7661 95.2843 28.7372 95.271C28.7084 95.2577 28.6824 95.2388 28.6608 95.2154C28.6393 95.1921 28.6225 95.1647 28.6115 95.1348C28.6006 95.105 28.5956 95.0733 28.5969 95.0415C28.5962 95.0108 28.6018 94.9803 28.6132 94.9519C28.6247 94.9234 28.6417 94.8975 28.6634 94.8758C28.6851 94.8541 28.711 94.8371 28.7395 94.8256C28.7679 94.8142 28.7984 94.8086 28.8291 94.8093H29.3129C29.377 94.8093 29.4385 94.8348 29.4839 94.8801C29.5292 94.9255 29.5547 94.987 29.5547 95.0512C29.5547 95.1153 29.5292 95.1768 29.4839 95.2222C29.4385 95.2676 29.377 95.2931 29.3129 95.2931ZM37.5367 95.2931C37.4725 95.2931 37.411 95.2676 37.3657 95.2222C37.3203 95.1768 37.2948 95.1153 37.2948 95.0512C37.2948 94.987 37.3203 94.9255 37.3657 94.8801C37.411 94.8348 37.4725 94.8093 37.5367 94.8093H38.0205C38.084 94.8091 38.1452 94.8329 38.1918 94.876C38.2385 94.9191 38.2671 94.9782 38.272 95.0415C38.2733 95.0733 38.2683 95.105 38.2574 95.1348C38.2464 95.1647 38.2296 95.1921 38.2081 95.2154C38.1865 95.2388 38.1605 95.2577 38.1317 95.271C38.1028 95.2843 38.0716 95.2918 38.0398 95.2931H37.556H37.5367ZM26.4103 95.1673L25.9266 95.1383C25.8948 95.1364 25.8637 95.1283 25.835 95.1144C25.8064 95.1005 25.7808 95.0811 25.7596 95.0573C25.7385 95.0334 25.7223 95.0057 25.7119 94.9756C25.7016 94.9455 25.6972 94.9136 25.6992 94.8819C25.6992 94.8512 25.7054 94.8208 25.7174 94.7926C25.7294 94.7643 25.747 94.7388 25.7692 94.7176C25.7913 94.6963 25.8175 94.6798 25.8463 94.6689C25.875 94.6581 25.9056 94.6532 25.9362 94.6545L26.42 94.6835C26.4841 94.6835 26.5457 94.709 26.591 94.7544C26.6364 94.7997 26.6619 94.8613 26.6619 94.9254C26.6619 94.9896 26.6364 95.0511 26.591 95.0964C26.5457 95.1418 26.4841 95.1673 26.42 95.1673H26.4103ZM40.4392 95.1673C40.3779 95.1663 40.3191 95.1424 40.2743 95.1004C40.2296 95.0583 40.2022 95.0011 40.1974 94.9399C40.1958 94.8764 40.2184 94.8146 40.2606 94.767C40.3028 94.7194 40.3614 94.6896 40.4247 94.6835L40.9085 94.6545C40.972 94.653 41.0338 94.6756 41.0814 94.7178C41.1289 94.76 41.1588 94.8186 41.1649 94.8819C41.1668 94.9136 41.1625 94.9455 41.1521 94.9756C41.1418 95.0057 41.1255 95.0334 41.1044 95.0573C41.0833 95.0811 41.0577 95.1005 41.029 95.1144C41.0004 95.1283 40.9693 95.1364 40.9375 95.1383L40.4537 95.1673H40.4392ZM23.5078 94.9738L23.024 94.9302C22.9922 94.9278 22.9612 94.9191 22.9328 94.9046C22.9044 94.8901 22.8791 94.8702 22.8584 94.8459C22.8377 94.8216 22.8221 94.7935 22.8123 94.7631C22.8025 94.7328 22.7989 94.7008 22.8015 94.669C22.81 94.6057 22.8421 94.548 22.8915 94.5076C22.941 94.4672 23.0039 94.4471 23.0676 94.4513L23.5513 94.49C23.6155 94.49 23.677 94.5155 23.7224 94.5609C23.7677 94.6062 23.7932 94.6677 23.7932 94.7319C23.7932 94.796 23.7677 94.8576 23.7224 94.9029C23.677 94.9483 23.6155 94.9738 23.5513 94.9738H23.5078ZM43.3418 94.9738C43.2776 94.9738 43.2161 94.9483 43.1707 94.9029C43.1254 94.8576 43.0999 94.796 43.0999 94.7319C43.0999 94.6677 43.1254 94.6062 43.1707 94.5609C43.2161 94.5155 43.2776 94.49 43.3418 94.49L43.8255 94.4513C43.8887 94.4472 43.951 94.4675 43.9996 94.508C44.0482 94.5485 44.0794 94.6061 44.0867 94.669C44.0901 94.7002 44.0872 94.7317 44.0783 94.7617C44.0694 94.7918 44.0546 94.8197 44.0348 94.844C44.015 94.8683 43.9906 94.8885 43.963 94.9033C43.9354 94.918 43.9051 94.9272 43.8739 94.9302L43.3901 94.9738H43.3418ZM20.6391 94.7077H20.6101L20.1263 94.6545C20.0622 94.6468 20.0037 94.6139 19.9638 94.5631C19.9239 94.5123 19.9058 94.4477 19.9135 94.3836C19.9212 94.3194 19.954 94.261 20.0048 94.2211C20.0557 94.1811 20.1202 94.163 20.1844 94.1707L20.6681 94.224C20.7323 94.224 20.7938 94.2494 20.8392 94.2948C20.8845 94.3402 20.91 94.4017 20.91 94.4658C20.91 94.53 20.8845 94.5915 20.8392 94.6369C20.7938 94.6822 20.7323 94.7077 20.6681 94.7077H20.6391ZM46.2298 94.7077C46.1656 94.7077 46.1041 94.6822 46.0587 94.6369C46.0134 94.5915 45.9879 94.53 45.9879 94.4658C45.9879 94.4017 46.0134 94.3402 46.0587 94.2948C46.1041 94.2494 46.1656 94.224 46.2298 94.224L46.7135 94.1707C46.7755 94.1638 46.8378 94.181 46.8874 94.2189C46.937 94.2567 46.97 94.3123 46.9796 94.3739C46.9864 94.4374 46.9678 94.501 46.928 94.5508C46.8881 94.6006 46.8302 94.6327 46.7668 94.64L46.283 94.6932L46.2298 94.7077ZM17.7559 94.3691H17.7221L17.2383 94.3014C17.2065 94.2972 17.1759 94.2869 17.1481 94.2709C17.1204 94.2549 17.096 94.2337 17.0765 94.2083C17.0569 94.1829 17.0426 94.1539 17.0343 94.123C17.0259 94.0921 17.0238 94.0598 17.0279 94.028C17.032 93.9963 17.0424 93.9656 17.0583 93.9379C17.0743 93.9101 17.0956 93.8857 17.121 93.8662C17.1463 93.8467 17.1753 93.8323 17.2062 93.824C17.2372 93.8156 17.2694 93.8135 17.3012 93.8176L17.785 93.8853C17.8471 93.8926 17.9038 93.9242 17.9428 93.9731C17.9817 94.022 17.9998 94.0844 17.993 94.1466C17.9762 94.1984 17.9431 94.2434 17.8987 94.2748C17.8542 94.3062 17.8007 94.3223 17.7463 94.3207L17.7559 94.3691ZM49.113 94.3691C49.0812 94.3713 49.0493 94.3673 49.0191 94.3572C48.9889 94.347 48.961 94.3311 48.937 94.3102C48.8884 94.268 48.8587 94.2083 48.8542 94.1441C48.8497 94.08 48.8708 94.0167 48.913 93.9681C48.9552 93.9196 49.015 93.8898 49.0791 93.8853L49.5629 93.8224C49.5937 93.8176 49.6251 93.8189 49.6555 93.8263C49.6858 93.8337 49.7143 93.847 49.7395 93.8654C49.7647 93.8838 49.7859 93.907 49.8021 93.9337C49.8183 93.9604 49.829 93.9899 49.8338 94.0208C49.8422 94.0841 49.8257 94.1482 49.7878 94.1997C49.7499 94.2511 49.6936 94.2858 49.6306 94.2965L49.1468 94.3594L49.113 94.3691ZM14.8824 93.9579H14.8437L14.36 93.8805C14.3254 93.8783 14.2918 93.8689 14.2611 93.8529C14.2305 93.8368 14.2036 93.8145 14.1821 93.7874C14.1606 93.7603 14.1451 93.729 14.1365 93.6955C14.1279 93.662 14.1265 93.627 14.1323 93.5929C14.1381 93.5588 14.151 93.5263 14.1702 93.4975C14.1893 93.4687 14.2143 93.4443 14.2436 93.4258C14.2728 93.4073 14.3056 93.3952 14.3398 93.3902C14.374 93.3851 14.4089 93.3874 14.4422 93.3967L14.926 93.479C14.9568 93.4837 14.9864 93.4944 15.0131 93.5106C15.0397 93.5268 15.0629 93.5481 15.0814 93.5733C15.0998 93.5984 15.1131 93.627 15.1204 93.6573C15.1278 93.6876 15.1291 93.7191 15.1243 93.7499C15.1054 93.7998 15.0704 93.8421 15.0249 93.8701C14.9794 93.8981 14.9259 93.9103 14.8727 93.9047L14.8824 93.9579ZM51.9816 93.9579C51.9499 93.9604 51.9179 93.9567 51.8876 93.9469C51.8573 93.9371 51.8292 93.9214 51.8049 93.9007C51.7807 93.8801 51.7607 93.8548 51.7462 93.8265C51.7317 93.7981 51.7229 93.7671 51.7204 93.7354C51.7179 93.7036 51.7216 93.6716 51.7314 93.6413C51.7412 93.611 51.7569 93.5829 51.7776 93.5587C51.7982 93.5344 51.8235 93.5145 51.8519 93.5C51.8802 93.4854 51.9112 93.4767 51.9429 93.4741L52.4267 93.3919C52.4895 93.3821 52.5536 93.3974 52.6052 93.4345C52.6568 93.4716 52.6917 93.5276 52.7024 93.5902C52.708 93.6217 52.7072 93.6539 52.7003 93.6851C52.6933 93.7163 52.6802 93.7458 52.6617 93.7719C52.6433 93.798 52.6199 93.8201 52.5928 93.8371C52.5658 93.8541 52.5356 93.8655 52.5041 93.8708L52.0203 93.9482L51.9816 93.9579ZM12.0234 93.4741H11.9799L11.4961 93.3822C11.465 93.3759 11.4354 93.3635 11.4091 93.3457C11.3828 93.3279 11.3602 93.3051 11.3427 93.2786C11.3252 93.2521 11.313 93.2224 11.307 93.1912C11.3009 93.16 11.3011 93.1279 11.3075 93.0968C11.3127 93.0661 11.324 93.0367 11.3408 93.0104C11.3576 92.9842 11.3796 92.9615 11.4053 92.9439C11.431 92.9263 11.46 92.9141 11.4906 92.9079C11.5212 92.9018 11.5527 92.9019 11.5832 92.9081L12.067 93C12.0981 93.0064 12.1277 93.0188 12.154 93.0366C12.1803 93.0544 12.2029 93.0772 12.2204 93.1037C12.2379 93.1302 12.2501 93.1599 12.2561 93.1911C12.2622 93.2223 12.262 93.2543 12.2556 93.2855C12.2312 93.3288 12.1937 93.3633 12.1486 93.3841C12.1034 93.4049 12.0529 93.411 12.0041 93.4016L12.0234 93.4741ZM54.8406 93.4741C54.7846 93.4751 54.7301 93.4562 54.6867 93.4208C54.6433 93.3853 54.6139 93.3357 54.6036 93.2806C54.5922 93.2172 54.606 93.1518 54.6422 93.0985C54.6784 93.0452 54.734 93.0081 54.7971 92.9952L55.2809 92.9033C55.3437 92.892 55.4084 92.906 55.461 92.9422C55.5136 92.9785 55.5497 93.034 55.5614 93.0968C55.5686 93.1264 55.5697 93.1571 55.5647 93.1871C55.5598 93.2171 55.5489 93.2458 55.5326 93.2715C55.5164 93.2972 55.4952 93.3194 55.4702 93.3367C55.4452 93.3541 55.417 93.3663 55.3873 93.3725L54.9035 93.4693L54.8406 93.4741ZM9.17411 92.8356H9.12089L8.63714 92.7243C8.60537 92.7173 8.5753 92.7042 8.54863 92.6855C8.52195 92.6669 8.49921 92.6432 8.48169 92.6158C8.46417 92.5884 8.45222 92.5579 8.44652 92.5258C8.44082 92.4938 8.44148 92.461 8.44847 92.4292C8.45546 92.3975 8.46864 92.3674 8.48725 92.3407C8.50586 92.314 8.52954 92.2913 8.55694 92.2738C8.58435 92.2563 8.61493 92.2443 8.64695 92.2386C8.67897 92.2329 8.7118 92.2336 8.74356 92.2406L9.22732 92.347C9.25852 92.3538 9.28805 92.3668 9.31421 92.3851C9.34036 92.4035 9.36263 92.4268 9.37972 92.4538C9.39681 92.4808 9.40839 92.5109 9.41378 92.5424C9.41918 92.5739 9.41828 92.6061 9.41115 92.6372C9.4019 92.6932 9.37289 92.744 9.3294 92.7804C9.28591 92.8167 9.23081 92.8363 9.17411 92.8356ZM57.6561 92.7824C57.6243 92.7857 57.5922 92.7827 57.5615 92.7735C57.5309 92.7644 57.5024 92.7493 57.4777 92.729C57.4529 92.7088 57.4324 92.6838 57.4174 92.6556C57.4024 92.6274 57.3931 92.5965 57.39 92.5647C57.386 92.5331 57.3884 92.5011 57.3969 92.4705C57.4055 92.4399 57.4202 92.4113 57.4401 92.3865C57.4599 92.3617 57.4846 92.3411 57.5125 92.326C57.5405 92.3109 57.5712 92.3016 57.6029 92.2986L58.0866 92.1873C58.1184 92.1804 58.1512 92.1797 58.1833 92.1854C58.2153 92.1911 58.2458 92.203 58.2733 92.2206C58.3007 92.2381 58.3243 92.2608 58.3429 92.2875C58.3616 92.3142 58.3747 92.3442 58.3817 92.376C58.3887 92.4078 58.3894 92.4406 58.3837 92.4726C58.378 92.5046 58.366 92.5352 58.3485 92.5626C58.331 92.59 58.3083 92.6137 58.2816 92.6323C58.2549 92.6509 58.2248 92.6641 58.1931 92.6711L57.7093 92.7775L57.6561 92.7824ZM6.32962 92.1293C6.31058 92.1342 6.29061 92.1342 6.27157 92.1293L5.78782 92.0084C5.72368 91.9912 5.66869 91.9499 5.63441 91.8931C5.60012 91.8362 5.58922 91.7683 5.60399 91.7036C5.62105 91.6397 5.6626 91.5851 5.71964 91.5516C5.77668 91.5181 5.84463 91.5084 5.90876 91.5246L6.39251 91.6504C6.42335 91.6583 6.45233 91.6722 6.47778 91.6913C6.50324 91.7104 6.52467 91.7343 6.54085 91.7618C6.55703 91.7892 6.56764 91.8195 6.57207 91.851C6.5765 91.8826 6.57466 91.9147 6.56666 91.9455C6.55451 91.9952 6.52687 92.0398 6.48775 92.0728C6.44864 92.1059 6.40005 92.1256 6.34897 92.1293H6.32962ZM60.4764 92.1003C60.4122 92.1086 60.3474 92.0911 60.2961 92.0517C60.2449 92.0122 60.2114 91.954 60.2031 91.8898C60.1947 91.8257 60.2122 91.7608 60.2517 91.7096C60.2911 91.6583 60.3494 91.6249 60.4135 91.6165L60.8973 91.4956C60.929 91.4876 60.962 91.486 60.9944 91.4908C61.0268 91.4957 61.0579 91.5068 61.086 91.5237C61.1141 91.5405 61.1386 91.5627 61.1581 91.589C61.1776 91.6153 61.1917 91.6452 61.1996 91.677C61.2076 91.7087 61.2092 91.7418 61.2043 91.7742C61.1995 91.8065 61.1884 91.8377 61.1715 91.8657C61.1547 91.8938 61.1325 91.9183 61.1062 91.9378C61.0799 91.9573 61.05 91.9714 61.0182 91.9793L60.5344 92.1003H60.4764ZM3.53351 91.3504H3.47547L2.99171 91.2102C2.96086 91.2018 2.93201 91.1874 2.90689 91.1676C2.88177 91.1479 2.8609 91.1233 2.84553 91.0953C2.83017 91.0672 2.82063 91.0364 2.81748 91.0046C2.81434 90.9728 2.81766 90.9407 2.82723 90.9102C2.84725 90.8492 2.89028 90.7983 2.9472 90.7685C3.00411 90.7387 3.07041 90.7323 3.132 90.7506L3.61575 90.886C3.64751 90.8905 3.67809 90.9011 3.70574 90.9174C3.73338 90.9337 3.75755 90.9552 3.77687 90.9808C3.79618 91.0064 3.81027 91.0356 3.81832 91.0666C3.82636 91.0977 3.82822 91.13 3.82377 91.1618C3.81932 91.1935 3.80866 91.2241 3.7924 91.2518C3.77613 91.2794 3.75459 91.3036 3.72898 91.3229C3.70338 91.3422 3.67421 91.3563 3.64317 91.3643C3.61212 91.3724 3.57979 91.3742 3.54803 91.3698L3.53351 91.3504ZM63.2725 91.3166C63.2208 91.3169 63.1703 91.3006 63.1285 91.2701C63.0867 91.2397 63.0558 91.1966 63.0403 91.1473C63.022 91.0857 63.0284 91.0194 63.0582 90.9625C63.0881 90.9056 63.1389 90.8625 63.1999 90.8425L63.6837 90.7071C63.744 90.6887 63.8091 90.6946 63.8651 90.7235C63.9212 90.7524 63.9637 90.8021 63.9836 90.8619C64.0018 90.9228 63.9952 90.9884 63.9653 91.0446C63.9355 91.1007 63.8847 91.1428 63.824 91.1618L63.3402 91.3021H63.2918L63.2725 91.3166ZM0.766432 90.47H0.689035L0.20528 90.3104C0.14113 90.2943 0.0859795 90.2535 0.0519581 90.1968C0.0179386 90.1401 0.00783348 90.0722 0.0238724 90.008C0.0399094 89.9439 0.0807724 89.8887 0.137474 89.8547C0.194174 89.8207 0.26207 89.8106 0.32622 89.8266H0.36492L0.819645 89.9814C0.879671 90.0023 0.929062 90.046 0.957125 90.103C0.985189 90.1601 0.989677 90.2259 0.969614 90.2862C0.952976 90.3285 0.924519 90.3651 0.887636 90.3917C0.850754 90.4183 0.806999 90.4337 0.761597 90.4361L0.766432 90.47ZM66.0734 90.4168C66.0132 90.4192 65.9541 90.3993 65.9074 90.3611C65.8607 90.3229 65.8297 90.2688 65.8202 90.2093C65.8107 90.1497 65.8233 90.0887 65.8557 90.0378C65.8881 89.9869 65.938 89.9496 65.996 89.933L66.4508 89.7782C66.4796 89.7666 66.5105 89.7609 66.5416 89.7615C66.5727 89.762 66.6034 89.7688 66.6318 89.7814C66.6603 89.7941 66.6859 89.8123 66.7071 89.835C66.7284 89.8577 66.7448 89.8845 66.7555 89.9137C66.7758 89.9747 66.7714 90.0411 66.7434 90.0989C66.7154 90.1568 66.666 90.2014 66.6056 90.2233L66.1218 90.3829L66.0734 90.4168ZM-1.9426 89.4493H-2.02968L-2.47956 89.2703C-2.53782 89.2475 -2.58498 89.203 -2.61114 89.1462C-2.6373 89.0894 -2.64042 89.0246 -2.61986 88.9655C-2.59614 88.907 -2.55048 88.8601 -2.49263 88.8348C-2.43478 88.8095 -2.36933 88.8078 -2.31026 88.8301L-1.86036 89.0091C-1.80096 89.0319 -1.75292 89.0771 -1.72666 89.1351C-1.70041 89.193 -1.69804 89.259 -1.72007 89.3187C-1.73677 89.3659 -1.76747 89.407 -1.80809 89.4364C-1.84871 89.4658 -1.89732 89.4821 -1.94744 89.4832L-1.9426 89.4493ZM68.7825 89.4493C68.734 89.4494 68.6867 89.4352 68.6462 89.4085C68.6058 89.3819 68.5741 89.3439 68.5551 89.2993C68.5326 89.2396 68.5342 89.1734 68.5594 89.1148C68.5847 89.0561 68.6317 89.0096 68.6906 88.9849L69.1356 88.8059C69.1954 88.7834 69.2615 88.7849 69.3202 88.8102C69.3788 88.8355 69.4254 88.8825 69.4501 88.9413C69.4618 88.9709 69.4677 89.0024 69.4672 89.0342C69.4668 89.066 69.4601 89.0975 69.4475 89.1267C69.435 89.1559 69.4167 89.1823 69.3939 89.2045C69.3711 89.2266 69.3442 89.2441 69.3146 89.2558L68.8647 89.4348C68.8382 89.4438 68.8105 89.4487 68.7825 89.4493ZM-4.62261 88.3802C-4.65467 88.385 -4.68729 88.385 -4.71936 88.3802L-5.16441 88.1819C-5.1931 88.1693 -5.21901 88.1511 -5.24065 88.1285C-5.26228 88.1058 -5.27922 88.0791 -5.29046 88.0499C-5.30171 88.0206 -5.30705 87.9894 -5.30617 87.9581C-5.30529 87.9268 -5.29822 87.896 -5.28535 87.8674C-5.25895 87.8091 -5.21053 87.7637 -5.15069 87.741C-5.09085 87.7183 -5.02446 87.7203 -4.96607 87.7465L-4.52585 87.9448C-4.46756 87.9712 -4.4221 88.0196 -4.39943 88.0795C-4.37677 88.1393 -4.37873 88.2057 -4.40491 88.2641C-4.42974 88.2994 -4.46326 88.3278 -4.50224 88.3464C-4.54121 88.3651 -4.58433 88.3734 -4.62744 88.3705L-4.62261 88.3802ZM71.4576 88.3318C71.4111 88.3317 71.3657 88.3178 71.327 88.292C71.2883 88.2662 71.258 88.2296 71.24 88.1867C71.2133 88.1302 71.2101 88.0655 71.2309 88.0066C71.2518 87.9477 71.295 87.8994 71.3512 87.8722L71.7866 87.6739C71.8445 87.6469 71.9107 87.6433 71.9711 87.6641C72.0316 87.6848 72.0816 87.7282 72.1107 87.7852C72.1358 87.8444 72.1373 87.911 72.1148 87.9713C72.0923 88.0316 72.0476 88.081 71.9898 88.1093L71.5496 88.3076C71.5161 88.3148 71.4815 88.3148 71.448 88.3076L71.4576 88.3318ZM-7.23972 87.1224H-7.35098L-7.78153 86.8951C-7.83715 86.8635 -7.87834 86.8115 -7.89639 86.7501C-7.91444 86.6888 -7.90795 86.6228 -7.87828 86.5661C-7.86404 86.5384 -7.84439 86.5139 -7.82049 86.494C-7.79658 86.474 -7.76892 86.4591 -7.73913 86.4501C-7.70935 86.4411 -7.67806 86.4381 -7.64711 86.4414C-7.61617 86.4447 -7.5862 86.4542 -7.559 86.4693L-7.1333 86.6919C-7.08541 86.7126 -7.04657 86.7499 -7.02385 86.7969C-7.00113 86.8439 -6.99606 86.8975 -7.00954 86.9479C-7.02302 86.9983 -7.05417 87.0422 -7.09731 87.0716C-7.14045 87.1009 -7.19271 87.1138 -7.24456 87.1079L-7.23972 87.1224ZM74.0748 87.0692C74.043 87.0763 74.0101 87.0771 73.9781 87.0714C73.946 87.0658 73.9154 87.0539 73.8879 87.0363C73.8605 87.0188 73.8368 86.996 73.8182 86.9693C73.7996 86.9425 73.7865 86.9124 73.7797 86.8805C73.7718 86.8491 73.7704 86.8163 73.7754 86.7843C73.7804 86.7523 73.7919 86.7216 73.809 86.694C73.8262 86.6665 73.8487 86.6427 73.8752 86.6241C73.9018 86.6054 73.9318 86.5923 73.9635 86.5855L74.3892 86.3629C74.4164 86.3478 74.4464 86.3383 74.4773 86.335C74.5083 86.3317 74.5396 86.3346 74.5693 86.3437C74.5991 86.3527 74.6268 86.3676 74.6507 86.3875C74.6746 86.4075 74.6943 86.432 74.7085 86.4597C74.7383 86.5151 74.7454 86.5799 74.7282 86.6404C74.7111 86.7009 74.671 86.7523 74.6166 86.7838L74.186 87.0112C74.1518 87.0312 74.114 87.0443 74.0748 87.0499V87.0692ZM-9.7746 85.7099C-9.8189 85.7108 -9.86254 85.699 -9.90038 85.676L-10.3116 85.4196C-10.3626 85.3811 -10.3967 85.3242 -10.4066 85.261C-10.4165 85.1979 -10.4015 85.1333 -10.3648 85.081C-10.3309 85.0347 -10.2816 85.002 -10.2257 84.9887C-10.1699 84.9754 -10.1112 84.9824 -10.06 85.0084L-9.64882 85.26C-9.62139 85.2764 -9.59747 85.298 -9.57847 85.3238C-9.55946 85.3495 -9.54573 85.3787 -9.53809 85.4097C-9.53044 85.4407 -9.52902 85.473 -9.53391 85.5046C-9.5388 85.5362 -9.54991 85.5665 -9.56659 85.5938C-9.58968 85.6271 -9.62093 85.6539 -9.65735 85.6717C-9.69377 85.6894 -9.73414 85.6976 -9.7746 85.6953V85.7099ZM76.6048 85.647C76.5631 85.6472 76.522 85.6367 76.4855 85.6163C76.4491 85.596 76.4185 85.5665 76.3968 85.5309C76.3644 85.4755 76.3548 85.4096 76.3702 85.3473C76.3856 85.285 76.4246 85.2311 76.479 85.1971L76.8902 84.9455C76.9473 84.9168 77.0135 84.9119 77.0742 84.9319C77.135 84.9518 77.1853 84.995 77.2143 85.0519C77.2404 85.1031 77.2474 85.1618 77.2341 85.2177C77.2208 85.2735 77.1881 85.3228 77.1418 85.3567L76.7306 85.6131C76.6895 85.6252 76.6459 85.6252 76.6048 85.6131V85.647ZM-12.1982 84.0989C-12.2483 84.0987 -12.2971 84.0836 -12.3385 84.0554L-12.7303 83.7652C-12.7788 83.7299 -12.8124 83.678 -12.8248 83.6194C-12.8371 83.5608 -12.8273 83.4997 -12.7972 83.448C-12.7671 83.3962 -12.7189 83.3574 -12.6618 83.3392C-12.6048 83.3209 -12.543 83.3245 -12.4885 83.3491L-12.4449 83.3782L-12.0579 83.6636C-12.006 83.6989 -11.9702 83.7534 -11.9584 83.815C-11.9467 83.8767 -11.9598 83.9405 -11.995 83.9925C-12.0178 84.0254 -12.0481 84.0522 -12.0835 84.0708C-12.1189 84.0893 -12.1583 84.099 -12.1982 84.0989ZM79.0236 84.0312C78.9715 84.0327 78.9204 84.0173 78.8778 83.9874C78.8352 83.9575 78.8033 83.9146 78.787 83.8652C78.7707 83.8157 78.7708 83.7623 78.7873 83.7129C78.8038 83.6635 78.8357 83.6208 78.8785 83.591L79.2655 83.3056C79.3172 83.2683 79.3814 83.2525 79.4445 83.2616C79.5076 83.2706 79.5648 83.3037 79.6041 83.354C79.6426 83.4053 79.6591 83.4698 79.65 83.5333C79.641 83.5968 79.607 83.6541 79.5557 83.6926C79.4299 83.7893 79.2945 83.8909 79.1639 83.9828C79.1246 84.0157 79.0747 84.0329 79.0236 84.0312ZM-14.467 82.2945C-14.5256 82.2911 -14.5815 82.2691 -14.6267 82.2317L-14.9895 81.9027C-15.0338 81.8575 -15.0586 81.7967 -15.0586 81.7334C-15.0586 81.6701 -15.0338 81.6093 -14.9895 81.5641C-14.967 81.5414 -14.9402 81.5234 -14.9108 81.5111C-14.8813 81.4988 -14.8497 81.4925 -14.8178 81.4925C-14.7858 81.4925 -14.7542 81.4988 -14.7247 81.5111C-14.6953 81.5234 -14.6685 81.5414 -14.646 81.5641L-14.288 81.8833C-14.2396 81.9246 -14.2095 81.9833 -14.204 82.0467C-14.1986 82.1101 -14.2184 82.1731 -14.259 82.222C-14.283 82.2497 -14.3127 82.2719 -14.3461 82.2869C-14.3796 82.302 -14.4159 82.3095 -14.4525 82.3091L-14.467 82.2945ZM81.2827 82.193C81.2487 82.1932 81.215 82.186 81.1841 82.1718C81.1531 82.1575 81.1257 82.1367 81.1037 82.1107C81.0597 82.0663 81.035 82.0063 81.035 81.9438C81.035 81.8813 81.0597 81.8213 81.1037 81.7769L81.4569 81.4528C81.4794 81.4301 81.5061 81.4121 81.5356 81.3999C81.5651 81.3876 81.5967 81.3813 81.6286 81.3813C81.6605 81.3813 81.6922 81.3876 81.7216 81.3999C81.7511 81.4121 81.7779 81.4301 81.8003 81.4528C81.8229 81.4749 81.8408 81.5012 81.853 81.5303C81.8652 81.5594 81.8715 81.5906 81.8715 81.6221C81.8715 81.6537 81.8652 81.6849 81.853 81.714C81.8408 81.743 81.8229 81.7694 81.8003 81.7914L81.7761 81.8156C81.66 81.9269 81.5391 82.0381 81.4133 82.1446C81.3761 82.1743 81.3303 82.1912 81.2827 82.193ZM-16.5085 80.2579C-16.5431 80.2576 -16.5773 80.2502 -16.609 80.236C-16.6406 80.2219 -16.669 80.2013 -16.6923 80.1757L-17.0067 79.7984C-17.0291 79.7767 -17.0469 79.7508 -17.0591 79.7221C-17.0712 79.6934 -17.0775 79.6626 -17.0775 79.6315C-17.0775 79.6003 -17.0712 79.5695 -17.0591 79.5408C-17.0469 79.5122 -17.0291 79.4862 -17.0067 79.4646C-16.956 79.4254 -16.8921 79.407 -16.8283 79.4133C-16.7644 79.4196 -16.7054 79.4501 -16.6633 79.4984L-16.3537 79.8612C-16.3091 79.9073 -16.2841 79.9689 -16.2841 80.033C-16.2841 80.0971 -16.3091 80.1587 -16.3537 80.2047C-16.3981 80.2389 -16.4524 80.2576 -16.5085 80.2579ZM83.2951 80.1467C83.231 80.1467 83.1695 80.1212 83.1241 80.0758C83.0788 80.0305 83.0533 79.9689 83.0533 79.9048C83.0572 79.8487 83.0774 79.7949 83.1113 79.75L83.4209 79.3823C83.4403 79.3578 83.4642 79.3374 83.4915 79.3221C83.5188 79.3069 83.5488 79.2972 83.5798 79.2936C83.6108 79.29 83.6422 79.2926 83.6722 79.3012C83.7023 79.3098 83.7303 79.3242 83.7547 79.3436C83.7792 79.363 83.7997 79.3869 83.8149 79.4142C83.8301 79.4415 83.8398 79.4715 83.8434 79.5025C83.847 79.5335 83.8445 79.5649 83.8359 79.5949C83.8273 79.625 83.8129 79.653 83.7934 79.6774L83.479 80.0548C83.457 80.0826 83.4291 80.1053 83.3973 80.1212C83.3655 80.1371 83.3307 80.1458 83.2951 80.1467ZM-18.2403 77.902C-18.2821 77.9023 -18.3232 77.8917 -18.3596 77.8714C-18.3961 77.851 -18.4266 77.8216 -18.4483 77.7859L-18.6951 77.3602C-18.7091 77.3317 -18.7173 77.3006 -18.7193 77.2688C-18.7213 77.237 -18.7171 77.2052 -18.7067 77.1751C-18.6964 77.145 -18.6802 77.1172 -18.6591 77.0933C-18.638 77.0695 -18.6124 77.05 -18.5838 77.0361C-18.5307 77.009 -18.4693 77.003 -18.412 77.0191C-18.3546 77.0353 -18.3054 77.0724 -18.2742 77.1232C-18.1968 77.2635 -18.1145 77.3989 -18.0323 77.5392C-18.0002 77.5939 -17.9908 77.659 -18.0061 77.7205C-18.0215 77.782 -18.0604 77.8351 -18.1145 77.8682C-18.1473 77.8866 -18.1836 77.8981 -18.221 77.902H-18.2403ZM84.9931 77.8004C84.9488 77.8014 84.9052 77.7896 84.8674 77.7666C84.8133 77.7335 84.7743 77.6805 84.7589 77.6189C84.7436 77.5574 84.753 77.4923 84.7851 77.4376C84.8625 77.2973 84.9447 77.1619 85.0173 77.0216C85.0326 76.9937 85.0532 76.969 85.0779 76.949C85.1027 76.929 85.1312 76.9141 85.1618 76.9051C85.1923 76.8961 85.2243 76.8932 85.256 76.8966C85.2876 76.9 85.3183 76.9096 85.3463 76.9249C85.3742 76.9401 85.3989 76.9607 85.4189 76.9855C85.4389 77.0103 85.4538 77.0387 85.4628 77.0693C85.4718 77.0998 85.4746 77.1319 85.4713 77.1635C85.4679 77.1952 85.4583 77.2259 85.443 77.2538C85.3656 77.3989 85.2834 77.5392 85.2011 77.6795C85.1812 77.7129 85.1538 77.7412 85.121 77.7622C85.0883 77.7831 85.0511 77.7962 85.0125 77.8004H84.9931ZM-19.4594 75.2849C-19.5105 75.2856 -19.5605 75.27 -19.6022 75.2404C-19.644 75.2109 -19.6752 75.1689 -19.6916 75.1204C-19.7448 74.9608 -19.7932 74.806 -19.8367 74.6367C-19.8531 74.5719 -19.8435 74.5034 -19.8101 74.4455C-19.7767 74.3877 -19.722 74.3452 -19.6577 74.3271C-19.5936 74.3109 -19.5257 74.3205 -19.4686 74.354C-19.4116 74.3875 -19.37 74.4422 -19.353 74.5061C-19.3094 74.656 -19.261 74.806 -19.2127 74.956C-19.1925 75.015 -19.1965 75.0796 -19.2237 75.1357C-19.2508 75.1919 -19.299 75.2351 -19.3578 75.2559C-19.3803 75.2683 -19.4049 75.2765 -19.4304 75.2801L-19.4594 75.2849ZM86.1977 75.1688H86.1251C86.0655 75.1498 86.0156 75.1085 85.9858 75.0535C85.956 74.9984 85.9488 74.934 85.9655 74.8737C86.009 74.7238 86.0574 74.5738 86.0961 74.419C86.1132 74.3551 86.1547 74.3005 86.2117 74.267C86.2688 74.2335 86.3367 74.2238 86.4009 74.24C86.4651 74.2581 86.5198 74.3006 86.5532 74.3584C86.5867 74.4163 86.5962 74.4849 86.5798 74.5496L86.4396 75.0334C86.418 75.078 86.3832 75.115 86.34 75.1392C86.2967 75.1634 86.247 75.1738 86.1977 75.1688ZM-19.9915 72.4549C-20.054 72.455 -20.1141 72.4309 -20.1592 72.3876C-20.2043 72.3443 -20.2309 72.2852 -20.2334 72.2227V71.739C-20.2322 71.676 -20.207 71.6159 -20.1629 71.571C-20.1189 71.526 -20.0593 71.4996 -19.9964 71.4971C-19.9334 71.4983 -19.8733 71.5235 -19.8283 71.5676C-19.7834 71.6116 -19.7569 71.6712 -19.7545 71.7342V72.2179C-19.7525 72.2491 -19.7567 72.2803 -19.7668 72.3098C-19.777 72.3393 -19.7928 72.3665 -19.8135 72.3899C-19.8342 72.4133 -19.8593 72.4323 -19.8873 72.446C-19.9154 72.4596 -19.9459 72.4676 -19.977 72.4695L-19.9915 72.4549ZM86.725 72.334C86.6604 72.3303 86.5998 72.3013 86.5564 72.2533C86.513 72.2054 86.4901 72.1423 86.4928 72.0776V71.5939C86.4928 71.5297 86.5182 71.4682 86.5636 71.4228C86.609 71.3775 86.6705 71.352 86.7346 71.352C86.7988 71.352 86.8603 71.3775 86.9057 71.4228C86.951 71.4682 86.9765 71.5297 86.9765 71.5939V72.0776C86.9785 72.1094 86.9742 72.1412 86.9638 72.1713C86.9534 72.2014 86.9372 72.2292 86.9161 72.253C86.895 72.2768 86.8693 72.2963 86.8407 72.3102C86.8121 72.3241 86.781 72.3322 86.7492 72.334H86.725ZM86.725 71.1295C86.6636 71.1284 86.6048 71.1046 86.5601 71.0625C86.5154 71.0205 86.4879 70.9633 86.4831 70.9021C86.4776 70.7402 86.4631 70.5787 86.4396 70.4183C86.4328 70.3536 86.4518 70.2888 86.4926 70.2381C86.5334 70.1873 86.5926 70.1547 86.6573 70.1474C86.689 70.1441 86.7212 70.1471 86.7518 70.1563C86.7824 70.1654 86.8109 70.1805 86.8357 70.2008C86.8604 70.221 86.8809 70.246 86.896 70.2742C86.911 70.3024 86.9203 70.3333 86.9233 70.3651C86.9233 70.5248 86.9572 70.6892 86.9669 70.8489C86.9695 70.8807 86.9658 70.9127 86.9561 70.943C86.9463 70.9734 86.9306 71.0015 86.9099 71.0258C86.8893 71.0501 86.864 71.07 86.8355 71.0845C86.8071 71.099 86.7761 71.1077 86.7443 71.1101L86.725 71.1295ZM-19.7448 69.5766H-19.798C-19.8288 69.5709 -19.8582 69.559 -19.8843 69.5416C-19.9104 69.5242 -19.9327 69.5018 -19.9498 69.4756C-19.967 69.4493 -19.9787 69.4199 -19.9842 69.3891C-19.9897 69.3582 -19.9889 69.3266 -19.9818 69.296C-19.948 69.1315 -19.9093 68.9719 -19.8657 68.8123C-19.8579 68.7821 -19.8441 68.7537 -19.8252 68.7288C-19.8064 68.7039 -19.7828 68.683 -19.7558 68.6673C-19.7288 68.6516 -19.699 68.6413 -19.6681 68.6371C-19.6371 68.633 -19.6057 68.6349 -19.5755 68.643C-19.5141 68.6599 -19.4619 68.7005 -19.4302 68.7557C-19.3985 68.811 -19.3899 68.8765 -19.4062 68.938C-19.4449 69.088 -19.4836 69.2428 -19.5174 69.3976C-19.5303 69.4484 -19.5595 69.4934 -19.6006 69.5258C-19.6418 69.5582 -19.6925 69.5761 -19.7448 69.5766ZM86.1445 68.3043C86.0945 68.3026 86.0462 68.286 86.0057 68.2567C85.9652 68.2274 85.9344 68.1867 85.9171 68.1398C85.8687 67.9899 85.8107 67.8399 85.7575 67.6948C85.7457 67.6653 85.7398 67.6337 85.7403 67.6019C85.7407 67.5701 85.7474 67.5387 85.76 67.5095C85.7726 67.4803 85.7908 67.4538 85.8136 67.4317C85.8364 67.4095 85.8633 67.3921 85.8929 67.3804C85.9228 67.3687 85.9546 67.3631 85.9866 67.3638C86.0187 67.3646 86.0502 67.3717 86.0795 67.3848C86.1087 67.3978 86.1351 67.4165 86.157 67.4399C86.179 67.4632 86.1961 67.4907 86.2074 67.5206C86.2654 67.6706 86.3235 67.8254 86.3767 68.0044C86.3985 68.0647 86.3954 68.1312 86.3682 68.1892C86.341 68.2473 86.2918 68.2922 86.2315 68.314C86.1997 68.3214 86.1666 68.3214 86.1348 68.314L86.1445 68.3043ZM-18.787 66.8531C-18.8218 66.8628 -18.8586 66.8628 -18.8934 66.8531C-18.9496 66.8259 -18.9929 66.7776 -19.0137 66.7187C-19.0345 66.6598 -19.0313 66.5951 -19.0047 66.5386C-18.9369 66.3935 -18.8595 66.2484 -18.7821 66.1032C-18.7678 66.075 -18.748 66.0499 -18.7239 66.0294C-18.6997 66.0089 -18.6717 65.9935 -18.6415 65.9841C-18.6113 65.9746 -18.5795 65.9713 -18.548 65.9743C-18.5165 65.9773 -18.4859 65.9866 -18.458 66.0016C-18.4024 66.0332 -18.3612 66.0852 -18.3432 66.1466C-18.3251 66.2079 -18.3316 66.2739 -18.3613 66.3306L-18.579 66.7515C-18.6005 66.7869 -18.6312 66.8159 -18.6678 66.8355C-18.7044 66.8551 -18.7455 66.8645 -18.787 66.8627V66.8531ZM84.9012 65.692C84.8606 65.6929 84.8204 65.6831 84.7848 65.6636C84.7491 65.644 84.7192 65.6155 84.698 65.5808C84.6158 65.4453 84.5287 65.3099 84.4416 65.1793C84.4064 65.1252 84.3937 65.0594 84.4064 64.9961C84.4191 64.9328 84.456 64.877 84.5094 64.8406C84.5633 64.8061 84.6287 64.7943 84.6913 64.8079C84.7538 64.8215 84.8085 64.8594 84.8432 64.9132C84.9351 65.0486 85.0222 65.1889 85.1092 65.3244C85.1259 65.3517 85.137 65.382 85.1419 65.4136C85.1468 65.4452 85.1454 65.4774 85.1377 65.5084C85.1301 65.5395 85.1164 65.5687 85.0973 65.5944C85.0783 65.6201 85.0544 65.6418 85.027 65.6582C84.9848 65.6835 84.9358 65.6953 84.8867 65.692H84.9012ZM-17.2583 64.4004C-17.3113 64.3998 -17.3626 64.381 -17.4034 64.3472C-17.4287 64.3286 -17.45 64.3051 -17.4661 64.2782C-17.4822 64.2513 -17.4928 64.2215 -17.4973 64.1904C-17.5018 64.1594 -17.5001 64.1277 -17.4923 64.0973C-17.4845 64.067 -17.4707 64.0384 -17.4518 64.0134L-17.1519 63.6312C-17.1294 63.6086 -17.1026 63.5906 -17.0732 63.5783C-17.0437 63.566 -17.0121 63.5597 -16.9801 63.5597C-16.9482 63.5597 -16.9166 63.566 -16.8871 63.5783C-16.8576 63.5906 -16.8309 63.6086 -16.8084 63.6312C-16.768 63.6711 -16.7426 63.7236 -16.7364 63.78C-16.7303 63.8364 -16.7437 63.8932 -16.7745 63.9409L-17.0696 64.3182C-17.0939 64.3499 -17.1255 64.3753 -17.1617 64.3922C-17.1979 64.4091 -17.2377 64.4169 -17.2777 64.4149L-17.2583 64.4004ZM83.1742 63.37C83.1396 63.3697 83.1053 63.3623 83.0737 63.3481C83.0421 63.3339 83.0137 63.3134 82.9904 63.2878C82.8888 63.1717 82.7824 63.0507 82.6711 62.9346C82.6495 62.9111 82.6328 62.8836 82.6218 62.8536C82.6108 62.8236 82.6059 62.7918 82.6072 62.7599C82.6086 62.728 82.6162 62.6967 82.6296 62.6677C82.6431 62.6388 82.6621 62.6128 82.6856 62.5912C82.7091 62.5696 82.7366 62.5528 82.7666 62.5419C82.7966 62.5309 82.8285 62.5259 82.8604 62.5273C82.8923 62.5286 82.9236 62.5363 82.9525 62.5497C82.9815 62.5632 83.0075 62.5822 83.0291 62.6057L83.3532 62.9685C83.3759 62.991 83.3939 63.0177 83.4061 63.0472C83.4184 63.0767 83.4248 63.1083 83.4248 63.1402C83.4248 63.1722 83.4184 63.2038 83.4061 63.2333C83.3939 63.2627 83.3759 63.2895 83.3532 63.312C83.3266 63.3342 83.2957 63.3509 83.2624 63.3609C83.2291 63.3708 83.1942 63.3739 83.1597 63.37H83.1742ZM-15.333 62.2284C-15.3802 62.2287 -15.4264 62.2152 -15.466 62.1895C-15.5057 62.1639 -15.5369 62.1272 -15.556 62.084C-15.575 62.0408 -15.581 61.993 -15.5731 61.9464C-15.5653 61.8999 -15.544 61.8566 -15.5119 61.822C-15.4007 61.7059 -15.2797 61.5946 -15.1636 61.4834C-15.1412 61.4607 -15.1144 61.4427 -15.0849 61.4304C-15.0554 61.4181 -15.0238 61.4118 -14.9919 61.4118C-14.96 61.4118 -14.9284 61.4181 -14.8989 61.4304C-14.8694 61.4427 -14.8427 61.4607 -14.8202 61.4834C-14.7762 61.5278 -14.7515 61.5878 -14.7515 61.6503C-14.7515 61.7128 -14.7762 61.7728 -14.8202 61.8172L-15.1636 62.151C-15.1871 62.1774 -15.2163 62.1981 -15.249 62.2115C-15.2817 62.2249 -15.317 62.2307 -15.3523 62.2284H-15.333ZM81.1182 61.3286C81.0592 61.3274 81.0026 61.3051 80.9586 61.2657L80.5958 60.9561C80.5471 60.9139 80.5168 60.8544 80.5114 60.7903C80.5059 60.7261 80.5258 60.6623 80.5668 60.6126C80.6096 60.565 80.6689 60.5354 80.7327 60.53C80.7966 60.5246 80.86 60.5438 80.9102 60.5836L81.2779 60.9029C81.3259 60.9457 81.3553 61.0055 81.3598 61.0697C81.3643 61.1338 81.3436 61.1972 81.3021 61.2463C81.2778 61.2747 81.2472 61.2969 81.2127 61.3112C81.1783 61.3255 81.1409 61.3314 81.1037 61.3286H81.1182ZM-13.1657 60.3224C-13.2295 60.3199 -13.2898 60.2928 -13.334 60.2468C-13.3782 60.2008 -13.4028 60.1394 -13.4028 60.0756C-13.4007 60.0404 -13.3914 60.0059 -13.3756 59.9743C-13.3598 59.9427 -13.3378 59.9146 -13.3109 59.8918L-12.9287 59.5919C-12.8762 59.5543 -12.8112 59.5384 -12.7473 59.5474C-12.6833 59.5564 -12.6253 59.5897 -12.5852 59.6403C-12.548 59.692 -12.5322 59.7562 -12.5412 59.8193C-12.5502 59.8825 -12.5833 59.9396 -12.6336 59.9789L-13.0158 60.274C-13.0589 60.3064 -13.1117 60.3234 -13.1657 60.3224ZM78.8301 59.529C78.7799 59.5294 78.7309 59.5142 78.6898 59.4855L78.2931 59.2097C78.2399 59.1732 78.2033 59.1169 78.1915 59.0534C78.1797 58.9899 78.1937 58.9243 78.2302 58.8711C78.2668 58.8178 78.323 58.7813 78.3865 58.7695C78.45 58.7577 78.5156 58.7716 78.5689 58.8082L78.9704 59.0888C79.0214 59.1273 79.0555 59.1842 79.0654 59.2473C79.0753 59.3105 79.0603 59.3751 79.0236 59.4274C79.0019 59.4586 78.9729 59.4842 78.9392 59.5018C78.9056 59.5195 78.8681 59.5288 78.8301 59.529ZM-10.8002 58.6437C-10.8514 58.6431 -10.9011 58.6262 -10.9421 58.5955C-10.9831 58.5649 -11.0133 58.522 -11.0284 58.473C-11.0434 58.424 -11.0426 58.3716 -11.0259 58.3231C-11.0092 58.2747 -10.9776 58.2328 -10.9356 58.2035L-10.5244 57.9423C-10.4699 57.9083 -10.4041 57.8973 -10.3415 57.9118C-10.2789 57.9264 -10.2246 57.9652 -10.1906 58.0197C-10.1566 58.0742 -10.1457 58.14 -10.1602 58.2026C-10.1747 58.2652 -10.2135 58.3195 -10.268 58.3535L-10.6695 58.6099C-10.7103 58.6349 -10.7572 58.6483 -10.805 58.6486L-10.8002 58.6437ZM76.3968 57.9423C76.354 57.9431 76.312 57.9313 76.2758 57.9084L75.8598 57.6617C75.8324 57.6466 75.8082 57.6262 75.7887 57.6016C75.7692 57.5771 75.7548 57.549 75.7463 57.5188C75.7377 57.4887 75.7352 57.4571 75.7389 57.426C75.7427 57.3949 75.7525 57.3649 75.7679 57.3376C75.8011 57.2823 75.8547 57.2423 75.9171 57.226C75.9794 57.2097 76.0457 57.2185 76.1017 57.2505L76.5177 57.4972C76.5452 57.5123 76.5694 57.5327 76.5888 57.5574C76.6082 57.5821 76.6224 57.6104 76.6305 57.6407C76.6386 57.671 76.6406 57.7026 76.6362 57.7336C76.6317 57.7647 76.6211 57.7945 76.6048 57.8213C76.5837 57.8579 76.5534 57.8883 76.5169 57.9095C76.4804 57.9307 76.439 57.942 76.3968 57.9423ZM-8.30398 57.1586C-8.35793 57.1589 -8.41042 57.1411 -8.4531 57.1081C-8.49579 57.0751 -8.52622 57.0288 -8.53956 56.9766C-8.55291 56.9243 -8.5484 56.8691 -8.52675 56.8196C-8.5051 56.7702 -8.46756 56.7295 -8.42008 56.7039L-7.99438 56.4717C-7.93729 56.4415 -7.87055 56.4353 -7.80886 56.4543C-7.74717 56.4734 -7.69558 56.5162 -7.66543 56.5732C-7.63527 56.6303 -7.62904 56.6971 -7.64809 56.7588C-7.66715 56.8205 -7.70992 56.8721 -7.76701 56.9022L-8.18788 57.1296C-8.22354 57.1488 -8.26346 57.1588 -8.30398 57.1586ZM73.8619 56.5539C73.8234 56.5556 73.785 56.5473 73.7506 56.5297L73.3201 56.312C73.2639 56.2848 73.2206 56.2366 73.1998 56.1777C73.179 56.1188 73.1822 56.0541 73.2088 55.9976C73.2228 55.969 73.2422 55.9434 73.2661 55.9223C73.2899 55.9012 73.3177 55.885 73.3478 55.8747C73.3779 55.8643 73.4098 55.86 73.4415 55.862C73.4733 55.864 73.5044 55.8723 73.533 55.8863L73.9683 56.1088C73.9963 56.124 74.0211 56.1446 74.0411 56.1694C74.0611 56.1942 74.0761 56.2226 74.0851 56.2532C74.0941 56.2838 74.0969 56.3158 74.0935 56.3475C74.0901 56.3792 74.0804 56.4099 74.0651 56.4378C74.0454 56.4759 74.0156 56.5079 73.9789 56.5301C73.9421 56.5523 73.9 56.5639 73.8571 56.5636L73.8619 56.5539ZM-5.71589 55.8379C-5.76122 55.838 -5.80567 55.8254 -5.84416 55.8014C-5.88265 55.7775 -5.91363 55.7432 -5.93358 55.7025C-5.96064 55.6446 -5.96416 55.5784 -5.9434 55.518C-5.92265 55.4575 -5.87924 55.4075 -5.82232 55.3784L-5.3821 55.1752C-5.32584 55.1566 -5.2647 55.1592 -5.21028 55.1827C-5.15586 55.2062 -5.11195 55.2488 -5.08689 55.3025C-5.06183 55.3562 -5.05735 55.4173 -5.07432 55.4741C-5.09128 55.5308 -5.12851 55.5794 -5.17892 55.6106L-5.6143 55.8186C-5.64653 55.8317 -5.68108 55.8383 -5.71589 55.8379ZM71.2448 55.2865C71.2133 55.2962 71.1796 55.2962 71.148 55.2865L70.7175 55.1026C70.6609 55.076 70.6168 55.0285 70.5945 54.9701C70.5722 54.9117 70.5733 54.8469 70.5978 54.7894C70.6222 54.7318 70.6679 54.6859 70.7254 54.6613C70.7829 54.6368 70.8477 54.6354 70.9062 54.6576L71.3512 54.8511C71.4143 54.865 71.4694 54.9031 71.5047 54.9572C71.54 55.0113 71.5527 55.0771 71.54 55.1404C71.5274 55.2037 71.4904 55.2596 71.437 55.2959C71.3836 55.3323 71.318 55.3463 71.2545 55.3348L71.2448 55.2865ZM-3.06007 54.6673C-3.10768 54.6664 -3.15402 54.6518 -3.19351 54.6252C-3.23299 54.5986 -3.26394 54.5611 -3.2826 54.5173C-3.3054 54.4581 -3.30455 54.3925 -3.28023 54.3339C-3.25591 54.2754 -3.20999 54.2284 -3.15199 54.2028L-2.7021 54.019C-2.67256 54.0072 -2.64098 54.0014 -2.60918 54.0018C-2.57739 54.0023 -2.54599 54.009 -2.51678 54.0215C-2.48758 54.0341 -2.46114 54.0523 -2.43898 54.0751C-2.41682 54.098 -2.39938 54.1249 -2.38765 54.1545C-2.37506 54.1836 -2.36846 54.215 -2.36824 54.2468C-2.36802 54.2785 -2.37419 54.31 -2.38637 54.3394C-2.39856 54.3687 -2.41651 54.3953 -2.43917 54.4175C-2.46182 54.4398 -2.48872 54.4573 -2.51827 54.4689L-2.96816 54.6479C-3.00001 54.6552 -3.03307 54.6552 -3.06491 54.6479L-3.06007 54.6673ZM68.5648 54.1835H68.4777L68.0278 54.0093C67.9637 53.994 67.9083 53.9537 67.8738 53.8975C67.8393 53.8412 67.8286 53.7736 67.844 53.7094C67.8594 53.6453 67.8996 53.5899 67.9559 53.5554C68.0121 53.5209 68.0798 53.5102 68.1439 53.5256H68.1971L68.6519 53.6997C68.7104 53.7235 68.7573 53.7691 68.7826 53.827C68.8079 53.8848 68.8096 53.9503 68.7873 54.0093C68.7675 54.0519 68.7351 54.0873 68.6944 54.1107C68.6536 54.1341 68.6067 54.1443 68.56 54.14L68.5648 54.1835ZM-0.355879 53.6514C-0.404955 53.6488 -0.452322 53.6325 -0.49254 53.6043C-0.532759 53.576 -0.564198 53.537 -0.583244 53.4917C-0.605028 53.4314 -0.601976 53.3649 -0.574762 53.3069C-0.54755 53.2488 -0.4984 53.204 -0.438116 53.1821L0.045639 53.0176C0.105942 52.9959 0.172426 52.9989 0.23048 53.0261C0.288536 53.0533 0.33341 53.1025 0.355244 53.1628C0.375305 53.2231 0.370817 53.2889 0.342754 53.3459C0.31469 53.4029 0.265308 53.4466 0.20528 53.4675L-0.249451 53.632C-0.282526 53.648 -0.319305 53.6547 -0.355879 53.6514ZM65.8267 53.1676H65.7493L65.2946 53.0128C65.2305 52.9929 65.1768 52.9484 65.1455 52.8889C65.1142 52.8295 65.1078 52.7601 65.1277 52.6959C65.1476 52.6318 65.1921 52.5782 65.2516 52.5469C65.311 52.5156 65.3804 52.5092 65.4446 52.529L65.9041 52.6839C65.9637 52.7029 66.0137 52.7442 66.0434 52.7992C66.0732 52.8542 66.0805 52.9187 66.0638 52.9789C66.0517 53.0327 66.0215 53.0807 65.9784 53.115C65.9353 53.1493 65.8818 53.1679 65.8267 53.1676ZM2.39669 52.6839C2.36489 52.6886 2.33245 52.687 2.30127 52.6791C2.2701 52.6712 2.24082 52.6571 2.21514 52.6378C2.18947 52.6184 2.16791 52.5941 2.15174 52.5663C2.13556 52.5385 2.1251 52.5077 2.12095 52.4758C2.11546 52.4443 2.11642 52.412 2.12375 52.3808C2.13109 52.3497 2.14466 52.3203 2.16365 52.2946C2.18264 52.2688 2.20664 52.2472 2.23422 52.2309C2.2618 52.2147 2.29238 52.2042 2.32413 52.2001L2.80788 52.055C2.86882 52.0368 2.93446 52.0434 2.99059 52.0733C3.04673 52.1031 3.08884 52.1539 3.10781 52.2146C3.1177 52.2435 3.1218 52.2741 3.11985 52.3046C3.11791 52.3351 3.10996 52.3649 3.09648 52.3923C3.083 52.4197 3.06424 52.4442 3.04128 52.4643C3.01832 52.4845 2.99162 52.4999 2.96269 52.5097L2.47893 52.6548C2.45842 52.6678 2.43529 52.6761 2.41121 52.679L2.39669 52.6839ZM63.0597 52.2968C63.0373 52.3017 63.0142 52.3017 62.9919 52.2968L62.5082 52.1614C62.4472 52.1407 62.3966 52.0974 62.3665 52.0405C62.3365 51.9836 62.3295 51.9173 62.3468 51.8554C62.3642 51.7934 62.4046 51.7405 62.4598 51.7074C62.515 51.6743 62.5808 51.6637 62.6436 51.6776L63.1274 51.8131C63.1582 51.8214 63.1871 51.8359 63.2122 51.8556C63.2373 51.8754 63.2582 51.9 63.2735 51.928C63.2889 51.956 63.2984 51.9868 63.3016 52.0186C63.3047 52.0504 63.3014 52.0825 63.2918 52.113C63.2837 52.1686 63.2556 52.2193 63.2129 52.2557C63.1702 52.2922 63.1158 52.312 63.0597 52.3114V52.2968ZM5.18312 51.8663C5.15159 51.8711 5.11942 51.8694 5.08854 51.8614C5.05766 51.8535 5.02872 51.8393 5.00343 51.8199C4.97813 51.8005 4.95702 51.7762 4.94135 51.7484C4.92568 51.7206 4.91577 51.69 4.91222 51.6583C4.90745 51.6265 4.90907 51.594 4.91699 51.5629C4.92491 51.5317 4.93896 51.5024 4.95832 51.4767C4.9777 51.4511 5.00199 51.4295 5.02979 51.4133C5.05759 51.3972 5.08834 51.3867 5.12023 51.3826L5.60399 51.2568C5.66514 51.2481 5.72734 51.2623 5.77872 51.2966C5.83011 51.3308 5.8671 51.3828 5.88264 51.4426C5.89818 51.5023 5.89119 51.5657 5.863 51.6207C5.83481 51.6756 5.78739 51.7183 5.72977 51.7405L5.24601 51.8663C5.22534 51.8712 5.20379 51.8712 5.18312 51.8663ZM60.2635 51.5277H60.2007L59.7169 51.4067C59.6548 51.3918 59.6011 51.3529 59.5676 51.2985C59.534 51.2441 59.5234 51.1787 59.5379 51.1165C59.5539 51.054 59.5938 51.0003 59.6489 50.9668C59.7041 50.9333 59.7702 50.9228 59.833 50.9375L60.3168 51.0584C60.3485 51.0622 60.3792 51.0723 60.4071 51.088C60.435 51.1036 60.4595 51.1246 60.4793 51.1498C60.499 51.175 60.5137 51.2038 60.5223 51.2346C60.5309 51.2654 60.5334 51.2976 60.5296 51.3293C60.5258 51.3611 60.5158 51.3918 60.5001 51.4197C60.4844 51.4476 60.4634 51.4721 60.4382 51.4919C60.4131 51.5116 60.3843 51.5262 60.3535 51.5349C60.3227 51.5435 60.2905 51.546 60.2587 51.5422L60.2635 51.5277ZM8.01793 51.1455C7.95378 51.1526 7.88946 51.1339 7.83911 51.0935C7.78876 51.0531 7.75651 50.9944 7.74945 50.9302C7.74239 50.8661 7.7611 50.8018 7.80148 50.7514C7.84185 50.7011 7.90057 50.6688 7.96472 50.6618L8.44847 50.5505C8.51262 50.5345 8.58052 50.5446 8.63722 50.5786C8.69392 50.6126 8.73478 50.6677 8.75082 50.7319C8.76686 50.796 8.75675 50.8639 8.72273 50.9206C8.68871 50.9773 8.63356 51.0182 8.56941 51.0342L8.08566 51.1455H8.01793ZM57.4626 50.8456H57.4094L56.9256 50.744C56.8944 50.7371 56.8649 50.7242 56.8387 50.7058C56.8126 50.6875 56.7903 50.6642 56.7732 50.6372C56.7561 50.6102 56.7446 50.5801 56.7392 50.5486C56.7338 50.5171 56.7347 50.4849 56.7418 50.4537C56.7475 50.4229 56.7594 50.3936 56.7768 50.3675C56.7942 50.3414 56.8166 50.3191 56.8428 50.3019C56.8691 50.2847 56.8985 50.2731 56.9293 50.2676C56.9602 50.2621 56.9918 50.2629 57.0224 50.2699L57.5061 50.3763C57.538 50.3794 57.5689 50.3887 57.5971 50.4037C57.6253 50.4187 57.6502 50.4392 57.6705 50.464C57.6907 50.4887 57.7059 50.5172 57.715 50.5478C57.7242 50.5785 57.7272 50.6106 57.7238 50.6424C57.7165 50.7071 57.6839 50.7663 57.6332 50.807C57.5825 50.8478 57.5177 50.8669 57.4529 50.8601L57.4626 50.8456ZM10.8527 50.5166C10.7976 50.5169 10.7441 50.4983 10.701 50.464C10.6579 50.4297 10.6278 50.3817 10.6157 50.328C10.604 50.2646 10.6171 50.1992 10.6522 50.1452C10.6873 50.0912 10.7417 50.0527 10.8044 50.0377L11.2881 49.941C11.3515 49.9296 11.4169 49.9434 11.4702 49.9796C11.5236 50.0157 11.5607 50.0713 11.5735 50.1345C11.5799 50.1656 11.5801 50.1977 11.574 50.2289C11.568 50.2601 11.5558 50.2897 11.5383 50.3163C11.5208 50.3428 11.4982 50.3656 11.4719 50.3833C11.4456 50.4011 11.416 50.4135 11.3849 50.4199L10.9011 50.5118L10.8527 50.5166ZM54.6229 50.2602H54.5746L54.0908 50.1732C54.0277 50.1603 53.9721 50.1232 53.9359 50.0699C53.8998 50.0165 53.8859 49.9512 53.8973 49.8877C53.9091 49.825 53.9452 49.7694 53.9977 49.7332C54.0503 49.6969 54.1151 49.6829 54.1779 49.6942L54.6617 49.7862C54.7244 49.7979 54.78 49.834 54.8162 49.8866C54.8525 49.9391 54.8665 50.0039 54.8551 50.0667C54.8427 50.1247 54.8101 50.1764 54.7632 50.2127C54.7162 50.249 54.658 50.2675 54.5988 50.2651L54.6229 50.2602ZM13.7069 49.9748C13.6427 49.9806 13.5789 49.9606 13.5295 49.9194C13.48 49.8781 13.449 49.8189 13.4432 49.7547C13.4375 49.6906 13.4574 49.6267 13.4987 49.5773C13.54 49.5279 13.5992 49.4968 13.6634 49.4911L14.1471 49.4088C14.1789 49.4034 14.2114 49.4043 14.2428 49.4115C14.2742 49.4187 14.3039 49.432 14.3302 49.4506C14.3565 49.4692 14.3788 49.4929 14.396 49.5202C14.4131 49.5474 14.4247 49.5778 14.4301 49.6096C14.4355 49.6414 14.4346 49.6739 14.4274 49.7053C14.4203 49.7367 14.407 49.7664 14.3883 49.7927C14.3697 49.8189 14.3461 49.8413 14.3188 49.8584C14.2915 49.8756 14.2611 49.8872 14.2294 49.8926L13.7456 49.9748H13.7069ZM51.764 49.7571H51.7253L51.2415 49.6797C51.1785 49.669 51.1222 49.6343 51.0843 49.5829C51.0464 49.5314 51.0299 49.4673 51.0383 49.404C51.0501 49.3409 51.086 49.285 51.1384 49.2479C51.1908 49.2109 51.2555 49.1958 51.3189 49.2057L51.8027 49.2782C51.8657 49.29 51.9217 49.3259 51.9587 49.3783C51.9957 49.4307 52.0109 49.4954 52.001 49.5588C51.9986 49.5906 51.9898 49.6216 51.9754 49.65C51.9609 49.6784 51.9409 49.7037 51.9167 49.7244C51.8924 49.7451 51.8643 49.7608 51.8339 49.7705C51.8035 49.7803 51.7715 49.784 51.7398 49.7813L51.764 49.7571ZM16.5707 49.5153C16.5392 49.5179 16.5075 49.5142 16.4774 49.5044C16.4473 49.4945 16.4195 49.4788 16.3956 49.4581C16.3717 49.4373 16.3522 49.412 16.3383 49.3836C16.3243 49.3552 16.3162 49.3243 16.3143 49.2927C16.3117 49.2609 16.3154 49.2289 16.3251 49.1986C16.3349 49.1682 16.3506 49.1401 16.3713 49.1158C16.3919 49.0915 16.4172 49.0716 16.4456 49.0571C16.4741 49.0426 16.5051 49.0339 16.5369 49.0315L17.0206 48.9638C17.0839 48.9554 17.1481 48.9718 17.1995 49.0097C17.2509 49.0476 17.2857 49.104 17.2964 49.1669C17.3047 49.231 17.2876 49.2957 17.2487 49.3473C17.2098 49.3988 17.1522 49.4331 17.0883 49.4427L16.6046 49.5104L16.5707 49.5153ZM48.8904 49.3314H48.8566L48.3728 49.2685C48.3094 49.2601 48.2518 49.2269 48.2128 49.1761C48.1738 49.1253 48.1566 49.0611 48.1648 48.9976C48.1721 48.9355 48.2037 48.8788 48.2526 48.8398C48.3015 48.8009 48.3639 48.7828 48.426 48.7896L48.9098 48.8525C48.9719 48.8598 49.0286 48.8913 49.0676 48.9403C49.1066 48.9892 49.1246 49.0516 49.1178 49.1137C49.1154 49.1455 49.1067 49.1765 49.0922 49.205C49.0777 49.2334 49.0578 49.2587 49.0335 49.2793C49.0092 49.3 48.9811 49.3157 48.9507 49.3255C48.9204 49.3352 48.8884 49.3389 48.8566 49.3363L48.8904 49.3314ZM45.9879 48.988L45.5042 48.9347C45.4408 48.9275 45.3828 48.8954 45.3429 48.8456C45.3031 48.7957 45.2845 48.7321 45.2913 48.6687C45.3009 48.6063 45.3335 48.5498 45.3828 48.5103C45.4321 48.4709 45.4944 48.4515 45.5574 48.4558L46.0411 48.5042C46.1053 48.5042 46.1668 48.5297 46.2122 48.575C46.2575 48.6204 46.283 48.6819 46.283 48.7461C46.283 48.8102 46.2575 48.8718 46.2122 48.9171C46.1668 48.9625 46.1053 48.988 46.0411 48.988H45.9879ZM43.0854 48.7171L42.6016 48.6784C42.5698 48.6759 42.5388 48.6672 42.5104 48.6527C42.482 48.6383 42.4567 48.6183 42.436 48.594C42.4153 48.5698 42.3996 48.5416 42.3899 48.5113C42.3801 48.4809 42.3764 48.4489 42.3791 48.4171C42.3864 48.3539 42.4174 48.2957 42.4659 48.2544C42.5143 48.2131 42.5767 48.1917 42.6403 48.1946L43.1241 48.2333C43.1552 48.2352 43.1857 48.2431 43.2138 48.2568C43.2418 48.2704 43.2669 48.2895 43.2876 48.3129C43.3083 48.3362 43.3241 48.3635 43.3342 48.393C43.3444 48.4225 43.3486 48.4537 43.3466 48.4849C43.346 48.5166 43.3391 48.5479 43.3264 48.5771C43.3136 48.6062 43.2953 48.6325 43.2724 48.6545C43.2494 48.6765 43.2224 48.6938 43.1928 48.7053C43.1632 48.7169 43.1317 48.7225 43.0999 48.7219L43.0854 48.7171ZM40.1828 48.5187H39.6991C39.6349 48.5149 39.5749 48.4857 39.5323 48.4376C39.4897 48.3895 39.4679 48.3265 39.4717 48.2623C39.4756 48.1982 39.5047 48.1382 39.5528 48.0955C39.6009 48.0529 39.664 48.0311 39.7281 48.035L40.2119 48.064C40.276 48.064 40.3375 48.0895 40.3829 48.1348C40.4283 48.1802 40.4537 48.2417 40.4537 48.3059C40.4537 48.37 40.4283 48.4315 40.3829 48.4769C40.3375 48.5223 40.276 48.5477 40.2119 48.5477L40.1828 48.5187ZM37.2803 48.3881H36.7966C36.7648 48.3875 36.7335 48.3806 36.7044 48.3679C36.6752 48.3551 36.6489 48.3368 36.6269 48.3139C36.6049 48.2909 36.5876 48.2639 36.5761 48.2343C36.5645 48.2047 36.5589 48.1732 36.5595 48.1414C36.5601 48.1092 36.5672 48.0775 36.5802 48.048C36.5933 48.0186 36.612 47.9921 36.6355 47.97C36.6589 47.9479 36.6865 47.9307 36.7166 47.9195C36.7468 47.9082 36.7789 47.9031 36.8111 47.9043H37.2948C37.359 47.9043 37.4205 47.9298 37.4659 47.9752C37.5112 48.0206 37.5367 48.0821 37.5367 48.1462C37.5367 48.2104 37.5112 48.2719 37.4659 48.3173C37.4205 48.3626 37.359 48.3881 37.2948 48.3881H37.2803ZM34.3778 48.3301H33.894C33.8299 48.3301 33.7683 48.3046 33.723 48.2592C33.6776 48.2138 33.6521 48.1523 33.6521 48.0882C33.6545 48.0248 33.6808 47.9646 33.7256 47.9198C33.7705 47.8749 33.8306 47.8487 33.894 47.8463H34.3778C34.4095 47.8469 34.4409 47.8538 34.47 47.8665C34.4991 47.8793 34.5254 47.8976 34.5474 47.9205C34.5694 47.9435 34.5867 47.9705 34.5983 48.0001C34.6098 48.0297 34.6155 48.0612 34.6148 48.093C34.6149 48.1534 34.592 48.2116 34.5506 48.2557C34.5092 48.2998 34.4526 48.3264 34.3923 48.3301H34.3778Z" fill="#A5A6F6"/>
<path d="M62.8917 59.0326C67.3462 59.0326 70.9572 55.4215 70.9572 50.967C70.9572 46.5126 67.3462 42.9015 62.8917 42.9015C58.4372 42.9015 54.8262 46.5126 54.8262 50.967C54.8262 55.4215 58.4372 59.0326 62.8917 59.0326Z" fill="#0F92BF"/>
<path d="M62.3509 46.8373V45.7148H63.6606V46.868C64.6024 46.9817 65.485 47.3873 66.1847 48.028L65.1234 49.4295C64.7151 49.0448 64.2169 48.7688 63.6742 48.6267V50.1711C64.0144 50.2867 64.3546 50.382 64.6709 50.5112C65.2374 50.6637 65.7232 51.0291 66.0268 51.5311C66.3304 52.0331 66.4284 52.6329 66.3004 53.2054C66.2504 53.5546 66.1235 53.8884 65.9287 54.1825C65.734 54.4767 65.4764 54.7239 65.1744 54.9063C64.7592 55.1569 64.2953 55.3158 63.8137 55.3724C63.6844 55.3724 63.6606 55.437 63.664 55.5526V56.5017H62.3509V55.437C62.0108 55.3655 61.6876 55.3077 61.3712 55.2227C60.7186 55.0561 60.1192 54.726 59.6295 54.2634C59.422 54.0729 59.4254 54.0661 59.5887 53.8348C59.8711 53.43 60.1568 53.0285 60.4562 52.6067C60.9561 53.1581 61.6165 53.5388 62.3441 53.6953V51.94C61.9699 51.8141 61.606 51.7121 61.2556 51.5692C60.9428 51.4681 60.6556 51.3005 60.4137 51.0779C60.1718 50.8554 59.9809 50.5832 59.8541 50.2799C59.7368 49.9812 59.6823 49.6615 59.694 49.3408C59.7057 49.02 59.7834 48.7052 59.9221 48.4158C60.111 48.0405 60.3833 47.7135 60.7183 47.4599C61.0532 47.2064 61.4419 47.0329 61.8543 46.953C62.0108 46.9054 62.1673 46.8816 62.3509 46.8373ZM63.6708 53.6715C63.8666 53.651 64.0488 53.5619 64.1852 53.4199C64.3215 53.278 64.4032 53.0923 64.4158 52.8959C64.4158 52.6033 64.0756 52.3618 63.6708 52.2802V53.6715ZM62.3339 49.8207V48.5382C62.1532 48.5423 61.9807 48.6148 61.8513 48.7411C61.7219 48.8673 61.6451 49.038 61.6366 49.2186C61.6366 49.4941 61.9359 49.7492 62.3339 49.8173V49.8207Z" fill="white"/>
<defs>
<linearGradient id="paint0_linear_544_58170" x1="8229.45" y1="-1437.15" x2="7608.58" y2="-834.388" gradientUnits="userSpaceOnUse">
<stop offset="0.01"/>
<stop offset="0.13" stop-opacity="0.69"/>
<stop offset="0.25" stop-opacity="0.32"/>
<stop offset="1" stop-opacity="0"/>
</linearGradient>
<linearGradient id="paint1_linear_544_58170" x1="9.34684" y1="63.1962" x2="41.0261" y2="64.4771" gradientUnits="userSpaceOnUse">
<stop/>
<stop offset="1" stop-opacity="0"/>
</linearGradient>
<linearGradient id="paint2_linear_544_58170" x1="3334.73" y1="3336.47" x2="2318.02" y2="3445.51" gradientUnits="userSpaceOnUse">
<stop/>
<stop offset="1" stop-opacity="0"/>
</linearGradient>
<linearGradient id="paint3_linear_544_58170" x1="2027.14" y1="-988.167" x2="1955.72" y2="-876.022" gradientUnits="userSpaceOnUse">
<stop offset="0.01"/>
<stop offset="0.13" stop-opacity="0.69"/>
<stop offset="0.25" stop-opacity="0.32"/>
<stop offset="1" stop-opacity="0"/>
</linearGradient>
</defs>
</svg>
