<svg width="46" height="84" viewBox="0 0 46 84" fill="none" xmlns="http://www.w3.org/2000/svg">
<path d="M38.0849 4.43429C39.2131 6.27912 37.7769 32.1175 38.7225 33.406C40.9394 36.428 45.692 45.0851 45.5058 48.8393C41.9565 48.9685 36.6667 48.9183 33.1604 48.3692C32.5157 48.2687 31.8317 48.1359 31.3697 47.6836C30.9768 47.2342 30.7077 46.6899 30.5889 46.1044L26.3663 31.5683C24.6615 25.7 22.9603 19.4047 24.8012 13.5759C25.7288 10.6364 27.5016 8.04857 29.2494 5.51104C30.2272 4.07538 28.6441 1.43376 30.4635 1.12868C32.3689 0.805654 37.1359 2.88736 38.0849 4.43429Z" fill="url(#paint0_linear_544_56766)"/>
<path d="M41.9711 73.9044V89.7245C35.5693 90.5273 29.0706 90.394 22.7137 89.3296C22.5772 86.8307 22.2143 81.4511 21.5532 78.9023C20.6802 75.5173 17.5473 74.7108 14.7521 71.6576C11.9569 68.6045 10.915 56.9857 10.218 55.0642C9.52099 53.1427 5.33898 49.7543 3.15457 47.4943C2.5333 46.9079 2.13072 46.1537 2.00537 45.3414C1.88002 44.5291 2.03843 43.701 2.45756 42.9776C2.45756 42.9776 12.7437 47.4943 12.7437 46.5253C12.7437 45.5562 10.394 43.4688 10.394 43.4688C10.394 43.4688 4.28629 40.8138 2.10547 38.5505C-0.0753546 36.2871 1.32224 33.5725 1.32224 33.5725L14.4036 37.973L15.6215 37.0106L10.5665 34.7539C10.5665 34.7539 5.50066 32.3346 2.53661 30.2405C-0.427446 28.1464 0.801287 23.1584 0.801287 23.1584L19.8107 31.2096L17.5437 26.7028C17.5437 26.7028 6.20844 23.477 3.06834 20.7292C-0.0717615 17.9813 0.801287 14.9281 0.801287 14.9281C0.801287 14.9281 23.6514 19.9227 26.6155 21.5389C29.5795 23.1551 39.3447 42.6457 39.6897 43.6048C40.0346 44.5639 41.9711 73.9044 41.9711 73.9044Z" fill="#FCD4D0"/>
<path d="M24.2888 63.1168L21.2482 73.6617C21.2482 73.6617 13.684 74.4442 11.1627 63.2065C8.64131 51.9689 24.2888 63.1168 24.2888 63.1168Z" fill="url(#paint1_linear_544_56766)"/>
<path d="M29.4895 0.884491H9.23619C6.196 0.884491 3.73145 3.35432 3.73145 6.40102V57.7511C3.73145 60.7978 6.196 63.2676 9.23619 63.2676H29.4895C32.5297 63.2676 34.9942 60.7978 34.9942 57.7511V6.40102C34.9942 3.35432 32.5297 0.884491 29.4895 0.884491Z" fill="#105D38"/>
<path d="M29.4895 0.884491H9.23619C6.196 0.884491 3.73145 3.35432 3.73145 6.40102V57.7511C3.73145 60.7978 6.196 63.2676 9.23619 63.2676H29.4895C32.5297 63.2676 34.9942 60.7978 34.9942 57.7511V6.40102C34.9942 3.35432 32.5297 0.884491 29.4895 0.884491Z" fill="#4CD080"/>
<path d="M29.5468 0.819855H9.17889C6.17035 0.819855 3.73145 3.26398 3.73145 6.27896V56.4159C3.73145 59.4309 6.17035 61.875 9.17889 61.875H29.5468C32.5553 61.875 34.9942 59.4309 34.9942 56.4159V6.27896C34.9942 3.26398 32.5553 0.819855 29.5468 0.819855Z" fill="#105D38"/>
<path d="M28.6081 2.23041H10.2816C7.57771 2.23041 5.38574 4.42707 5.38574 7.13678V52.1376C5.38574 54.8473 7.57771 57.044 10.2816 57.044H28.6081C31.312 57.044 33.504 54.8473 33.504 52.1376V7.13678C33.504 4.42707 31.312 2.23041 28.6081 2.23041Z" fill="#4CD080"/>
<path opacity="0.18" d="M20.2279 12.9979C17.8032 12.9972 15.4327 13.717 13.4163 15.0664C11.3998 16.4158 9.82795 18.3341 8.89941 20.5787C7.97087 22.8233 7.72737 25.2935 8.19971 27.6768C8.67205 30.0602 9.83901 32.2496 11.553 33.9683C13.267 35.687 15.4511 36.8577 17.8291 37.3325C20.207 37.8072 22.6721 37.5646 24.9124 36.6354C27.1528 35.7062 29.068 34.1321 30.4156 32.1121C31.7633 30.0921 32.483 27.717 32.4837 25.2871C32.4828 22.0294 31.1914 18.9052 28.8934 16.6009C26.5954 14.2966 23.4787 13.0007 20.2279 12.9979ZM20.2279 35.4803C18.2542 35.4811 16.3247 34.8952 14.6834 33.7969C13.042 32.6986 11.7626 31.1371 11.0068 29.31C10.2511 27.483 10.0529 25.4723 10.4375 23.5324C10.8221 21.5924 11.7722 19.8104 13.1675 18.4116C14.5628 17.0128 16.3407 16.0601 18.2763 15.674C20.212 15.2878 22.2184 15.4857 24.0419 16.2424C25.8653 16.9991 27.4239 18.2807 28.5204 19.9252C29.617 21.5697 30.2023 23.5031 30.2023 25.4809C30.1995 28.1315 29.1478 30.6726 27.2779 32.5472C25.4081 34.4217 22.8727 35.4765 20.2279 35.4803Z" fill="white"/>
<path d="M14.3936 23.2161C14.3336 23.2159 14.2742 23.205 14.2181 23.1838C14.1043 23.1368 14.0135 23.0469 13.9653 22.9334C13.917 22.82 13.9152 22.6921 13.9602 22.5773C13.9602 22.5342 15.7796 18.1841 20.2242 18.3205C20.2854 18.3224 20.3456 18.3363 20.4014 18.3615C20.4571 18.3867 20.5074 18.4226 20.5493 18.4673C20.5912 18.5119 20.624 18.5644 20.6456 18.6218C20.6673 18.6791 20.6774 18.7402 20.6755 18.8015C20.6746 18.8627 20.6615 18.9232 20.6369 18.9793C20.6123 19.0354 20.5768 19.086 20.5324 19.1282C20.488 19.1703 20.4357 19.2031 20.3784 19.2247C20.3212 19.2462 20.2603 19.2561 20.1992 19.2537C16.3813 19.146 14.8842 22.7711 14.8269 22.9254C14.7927 23.0123 14.7329 23.0866 14.6555 23.1385C14.5781 23.1905 14.4867 23.2175 14.3936 23.2161Z" fill="white"/>
<path d="M26.3775 24.9964C26.2582 24.9966 26.1434 24.9509 26.0568 24.8687C25.9702 24.7866 25.9183 24.6743 25.9119 24.5549C25.8913 23.5325 25.5761 22.5378 25.0041 21.6908C24.4322 20.8438 23.628 20.1807 22.6885 19.7814C22.573 19.7399 22.4785 19.6545 22.4255 19.5436C22.3726 19.4327 22.3654 19.3053 22.4056 19.1892C22.4249 19.1309 22.4557 19.0772 22.496 19.0311C22.5364 18.985 22.5856 18.9474 22.6406 18.9207C22.6957 18.8939 22.7556 18.8785 22.8167 18.8753C22.8778 18.8721 22.939 18.8812 22.9965 18.902C24.115 19.3555 25.0758 20.1282 25.7596 21.1243C26.4435 22.1204 26.8202 23.2958 26.8431 24.5047C26.8489 24.6282 26.806 24.7491 26.7235 24.8412C26.6411 24.9332 26.5257 24.989 26.4025 24.9964H26.3775Z" fill="white"/>
<path d="M25.4354 28.6682C25.3319 28.6679 25.2314 28.6339 25.1489 28.5713C25.0523 28.4949 24.9898 28.3834 24.975 28.261C24.9603 28.1386 24.9945 28.0153 25.0701 27.9181C25.4159 27.4032 25.6367 26.8145 25.7148 26.1988C25.7185 26.1356 25.735 26.0737 25.7633 26.017C25.7916 25.9604 25.8312 25.9101 25.8795 25.8692C25.9279 25.8284 25.984 25.7978 26.0446 25.7794C26.1051 25.7611 26.1687 25.7552 26.2316 25.7623C26.2944 25.7694 26.3552 25.7892 26.4101 25.8206C26.4651 25.852 26.5131 25.8943 26.5512 25.9449C26.5893 25.9955 26.6167 26.0533 26.6318 26.1149C26.6468 26.1764 26.6492 26.2404 26.6388 26.3029C26.537 27.0892 26.247 27.8391 25.7936 28.4887C25.7509 28.5435 25.6967 28.588 25.6347 28.619C25.5728 28.6501 25.5047 28.6669 25.4354 28.6682Z" fill="white"/>
<path d="M15.9489 23.7869C15.8832 23.7868 15.8184 23.7721 15.7591 23.7438C15.6474 23.6929 15.5603 23.5998 15.5167 23.4849C15.4731 23.37 15.4766 23.2425 15.5263 23.1301C15.89 22.311 16.4513 21.5954 17.1597 21.0478C17.868 20.5002 18.7012 20.1378 19.5841 19.9931C20.9701 19.767 22.2917 20.1224 23.0259 20.9192C23.0706 20.9635 23.1059 21.0165 23.1297 21.075C23.1534 21.1334 23.165 21.196 23.1639 21.2591C23.1628 21.3222 23.1489 21.3844 23.1231 21.4419C23.0973 21.4995 23.0602 21.5512 23.0139 21.5939C22.9676 21.6366 22.9131 21.6695 22.8538 21.6906C22.7945 21.7117 22.7315 21.7204 22.6687 21.7164C22.6059 21.7124 22.5445 21.6956 22.4883 21.6672C22.4321 21.6387 22.3823 21.5991 22.3418 21.5508C21.8261 20.9909 20.8018 20.7397 19.7309 20.9156C19.0004 21.0345 18.311 21.334 17.725 21.7871C17.1391 22.2402 16.6751 22.8325 16.3751 23.5105C16.338 23.5927 16.2781 23.6624 16.2025 23.7115C16.1269 23.7605 16.0389 23.7866 15.9489 23.7869Z" fill="white"/>
<path d="M21.4961 31.8301C21.4035 31.8313 21.3126 31.8045 21.2353 31.7532C21.1581 31.702 21.098 31.6287 21.0628 31.5427C21.0277 31.4568 21.0191 31.3623 21.0383 31.2715C21.0574 31.1806 21.1034 31.0976 21.1702 31.0333C25.9658 26.3495 23.3191 22.8393 23.3191 22.8034C23.2685 22.7072 23.2529 22.5963 23.2752 22.4899C23.2975 22.3834 23.3562 22.2881 23.4412 22.2205C23.5261 22.1528 23.632 22.117 23.7405 22.1192C23.849 22.1214 23.9533 22.1616 24.0354 22.2327C24.0676 22.2722 27.1978 26.4392 21.8113 31.7009C21.7263 31.7823 21.6137 31.8285 21.4961 31.8301Z" fill="white"/>
<path d="M14.3648 27.5017C14.2751 27.5022 14.1872 27.4767 14.1116 27.4283C14.0359 27.38 13.9759 27.3107 13.9386 27.2289C13.516 26.2814 13.7846 24.5335 13.8169 24.3396C13.838 24.2181 13.9055 24.1097 14.0052 24.0373C14.1048 23.9649 14.2287 23.9343 14.3505 23.952C14.411 23.962 14.4689 23.9839 14.521 24.0164C14.573 24.0489 14.6181 24.0914 14.6537 24.1414C14.6893 24.1914 14.7147 24.248 14.7284 24.3079C14.7422 24.3678 14.744 24.4298 14.7337 24.4904C14.6334 25.1221 14.5546 26.3244 14.7874 26.8449C14.82 26.9157 14.8342 26.9935 14.8287 27.0713C14.8233 27.149 14.7983 27.2241 14.7561 27.2896C14.714 27.3551 14.656 27.4089 14.5876 27.446C14.5192 27.483 14.4426 27.5022 14.3648 27.5017Z" fill="white"/>
<path d="M15.179 29.6874C15.0811 29.6887 14.9853 29.6588 14.9055 29.602C14.8257 29.5452 14.7659 29.4645 14.7348 29.3714C14.7038 29.2784 14.703 29.1779 14.7326 29.0844C14.7622 28.9909 14.8207 28.9092 14.8997 28.8512C15.6482 28.2877 15.444 26.2059 15.136 25.0251C15.1055 24.9057 15.1234 24.779 15.1858 24.6727C15.2482 24.5665 15.3501 24.4893 15.4691 24.458C15.5282 24.4419 15.5898 24.4378 15.6505 24.4459C15.7111 24.454 15.7696 24.4742 15.8223 24.5053C15.875 24.5364 15.921 24.5778 15.9576 24.627C15.9941 24.6762 16.0204 24.7323 16.035 24.7918C16.1353 25.1507 16.9447 28.4779 15.4584 29.5941C15.3783 29.6556 15.2799 29.6885 15.179 29.6874Z" fill="white"/>
<path d="M16.3425 30.7677C16.2416 30.7675 16.1436 30.7344 16.0631 30.6735C15.9825 30.6126 15.9239 30.5272 15.8961 30.43C15.8682 30.3329 15.8726 30.2293 15.9085 30.1348C15.9445 30.0404 16.01 29.9602 16.0954 29.9063C16.167 29.8596 17.7429 28.8295 17.0839 26.1879C16.6577 24.4723 17.0839 23.3991 17.5531 22.8033C17.8891 22.3884 18.3149 22.0555 18.7983 21.8298C19.2816 21.6041 19.8099 21.4915 20.343 21.5005C20.4041 21.4971 20.4652 21.5061 20.5226 21.5271C20.58 21.5481 20.6326 21.5805 20.6772 21.6225C20.7217 21.6644 20.7573 21.715 20.7817 21.7712C20.8062 21.8273 20.819 21.8879 20.8194 21.9491C20.8218 22.0102 20.8121 22.0712 20.7908 22.1285C20.7696 22.1858 20.7372 22.2384 20.6956 22.2831C20.6539 22.3278 20.6039 22.3638 20.5483 22.3891C20.4927 22.4143 20.4327 22.4282 20.3717 22.4301C19.9775 22.4198 19.586 22.4987 19.2264 22.6609C18.8668 22.8231 18.5482 23.0644 18.2944 23.3668C17.8253 23.9878 17.7178 24.8886 17.9864 25.9618C18.8137 29.2854 16.6756 30.6277 16.5861 30.6995C16.5126 30.744 16.4284 30.7675 16.3425 30.7677Z" fill="white"/>
<path d="M21.1697 28.4347C21.0839 28.4334 21.0002 28.4082 20.9279 28.3618C20.8556 28.3155 20.7976 28.2499 20.7604 28.1724C20.7232 28.0949 20.7083 28.0085 20.7174 27.923C20.7264 27.8375 20.759 27.7562 20.8116 27.6882C21.5028 26.7837 22.0544 25.4234 21.7822 24.7092C21.7286 24.575 21.6383 24.4587 21.5218 24.3736C21.4052 24.2885 21.267 24.2382 21.1232 24.2282C20.611 24.1313 20.2457 24.1888 20.0272 24.4041C19.644 24.763 19.6977 25.6136 19.7479 25.9044C19.7641 25.9664 19.7674 26.0312 19.7575 26.0946C19.7476 26.158 19.7247 26.2187 19.6904 26.2728C19.656 26.327 19.6109 26.3734 19.5578 26.4093C19.5047 26.4452 19.4448 26.4697 19.3819 26.4813C19.3189 26.493 19.2542 26.4915 19.1918 26.4769C19.1295 26.4623 19.0708 26.4351 19.0194 26.3967C18.9681 26.3584 18.9251 26.3099 18.8933 26.2542C18.8615 26.1985 18.8416 26.1368 18.8346 26.0731C18.806 25.9187 18.5767 24.5333 19.3718 23.7437C19.8195 23.2986 20.4678 23.1551 21.2987 23.313C21.6001 23.3538 21.885 23.4754 22.1233 23.6649C22.3615 23.8544 22.5444 24.1048 22.6525 24.3897C23.0751 25.506 22.3767 27.1821 21.5494 28.2624C21.5044 28.3194 21.4464 28.3647 21.3804 28.3947C21.3144 28.4247 21.2421 28.4384 21.1697 28.4347Z" fill="white"/>
<path d="M17.8464 31.4389C17.7541 31.4383 17.6641 31.4102 17.5877 31.3583C17.5114 31.3063 17.4522 31.2327 17.4176 31.147C17.3831 31.0612 17.3748 30.9671 17.3937 30.8765C17.4127 30.786 17.458 30.7032 17.5241 30.6385C18.8134 29.3823 18.7776 27.5052 18.7776 27.4873C18.7738 27.3635 18.8192 27.2433 18.9038 27.1531C18.9885 27.0629 19.1054 27.0101 19.2289 27.0063C19.3523 27.0025 19.4723 27.048 19.5623 27.1328C19.6523 27.2176 19.705 27.3348 19.7088 27.4585C19.7088 27.5519 19.7625 29.7592 18.1723 31.3061C18.0854 31.3917 17.9683 31.4395 17.8464 31.4389Z" fill="white"/>
<path d="M19.5688 31.9414C19.5004 31.9414 19.433 31.9254 19.3718 31.8948C19.3167 31.869 19.2672 31.8325 19.2262 31.7875C19.1852 31.7424 19.1535 31.6897 19.1328 31.6323C19.1122 31.575 19.1031 31.5141 19.106 31.4532C19.1089 31.3923 19.1238 31.3326 19.1498 31.2774L20.0881 29.2855C20.143 29.1771 20.2378 29.0945 20.3525 29.0552C20.4671 29.0158 20.5926 29.0228 20.7022 29.0747C20.8118 29.1266 20.8969 29.2192 20.9394 29.333C20.9819 29.4467 20.9784 29.5726 20.9298 29.6839L19.9914 31.6758C19.9534 31.7557 19.8935 31.8231 19.8186 31.8701C19.7438 31.9172 19.6572 31.9419 19.5688 31.9414Z" fill="white"/>
<path opacity="0.18" d="M14.5075 51.175C15.455 51.175 16.2231 50.4053 16.2231 49.4558C16.2231 48.5063 15.455 47.7366 14.5075 47.7366C13.5601 47.7366 12.792 48.5063 12.792 49.4558C12.792 50.4053 13.5601 51.175 14.5075 51.175Z" fill="white"/>
<path opacity="0.18" d="M19.031 51.1749C19.9784 51.1749 20.7465 50.4051 20.7465 49.4557C20.7465 48.5062 19.9784 47.7365 19.031 47.7365C18.0835 47.7365 17.3154 48.5062 17.3154 49.4557C17.3154 50.4051 18.0835 51.1749 19.031 51.1749Z" fill="white"/>
<path opacity="0.18" d="M23.5505 51.1749C24.498 51.1749 25.266 50.4051 25.266 49.4557C25.266 48.5062 24.498 47.7365 23.5505 47.7365C22.603 47.7365 21.835 48.5062 21.835 49.4557C21.835 50.4051 22.603 51.1749 23.5505 51.1749Z" fill="white"/>
<path d="M34.8975 49.8729C34.8975 49.8729 35.6138 50.3323 35.8107 49.5463C36.0077 48.7602 36.9174 40.3329 36.9174 40.3329L34.8975 36.2161V49.8729Z" fill="url(#paint2_linear_544_56766)"/>
<path d="M23.1932 58.7596H15.4357C14.9847 58.7596 14.6191 59.1252 14.6191 59.5762C14.6191 60.0271 14.9847 60.3927 15.4357 60.3927H23.1932C23.6442 60.3927 24.0098 60.0271 24.0098 59.5762C24.0098 59.1252 23.6442 58.7596 23.1932 58.7596Z" fill="white"/>
<path d="M29.1264 25.9542C29.0001 27.2666 28.5882 28.5356 27.9195 29.672C27.2509 30.8083 26.3416 31.7846 25.2556 32.5323C24.1695 33.2801 22.9331 33.7811 21.6329 34.0003C20.3326 34.2195 19.0002 34.1516 17.7291 33.8013C16.4579 33.4509 15.2788 32.8267 14.2745 31.9724C13.2702 31.1181 12.4649 30.0544 11.9153 28.8558C11.3657 27.6574 11.085 26.3531 11.0929 25.0346C11.1009 23.7162 11.3972 22.4154 11.9611 21.2236C13.5447 17.8829 17.0951 15.7279 20.9881 16.0993C25.957 16.5733 29.6008 20.9858 29.1264 25.9542Z" fill="#E0F1F0"/>
<path d="M25.9243 32.0306L25.6104 32.2817C25.2853 32.5297 24.9439 32.7555 24.5885 32.9576C23.5358 33.5542 22.3741 33.9334 21.1721 34.0728C19.9702 34.2122 18.7525 34.1089 17.5913 33.7691C16.43 33.4292 15.3488 32.8597 14.4117 32.0943C13.4746 31.3289 12.7006 30.3832 12.1357 29.3132C13.5707 28.2586 15.9731 26.9986 19.046 27.2558C24.1861 27.6882 25.9243 32.0306 25.9243 32.0306Z" fill="#FFAE58"/>
<path d="M19.8002 29.3982C19.7424 29.3983 19.6846 29.3949 19.6273 29.3879C19.246 29.3425 18.8984 29.1475 18.6609 28.8458C18.4233 28.5442 18.3154 28.1605 18.3607 27.7793L19.0466 22.0104C19.092 21.6291 19.2871 21.2814 19.5889 21.0439C19.7384 20.9264 19.9095 20.8394 20.0925 20.7879C20.2756 20.7365 20.467 20.7216 20.6558 20.7441C20.8446 20.7666 21.0272 20.8261 21.193 20.9191C21.3588 21.0122 21.5047 21.137 21.6223 21.2864C21.7399 21.4358 21.8269 21.607 21.8783 21.79C21.9298 21.9731 21.9447 22.1645 21.9222 22.3533L21.2363 28.1222C21.1943 28.4737 21.025 28.7975 20.7604 29.0326C20.4958 29.2678 20.1542 29.3978 19.8002 29.3982Z" fill="#FCD4D0"/>
<path d="M21.0117 26.451L21.3188 26.4853C21.6759 26.5255 22.0375 26.4866 22.3779 26.3712C22.7182 26.2559 23.029 26.0669 23.288 25.8178C23.547 25.5687 23.748 25.2655 23.8765 24.9299C24.005 24.5943 24.058 24.2345 24.0317 23.8761L23.9014 22.1006C23.8592 21.5272 23.6164 20.9869 23.2155 20.5747C22.8147 20.1625 22.2813 19.9046 21.7093 19.8465C21.064 19.7811 20.4191 19.9746 19.9164 20.3846C19.4138 20.7946 19.0947 21.3875 19.0292 22.0328L18.8524 23.7736C18.7873 24.4143 18.9775 25.0547 19.3818 25.556C19.7861 26.0572 20.3717 26.3788 21.0117 26.451Z" fill="#FCD4D0"/>
<path d="M19.59 24.5638L19.5903 24.5636C20.0133 24.3034 20.1453 23.7496 19.8851 23.3266L19.6177 22.892C19.3575 22.4691 18.8036 22.3371 18.3806 22.5973L18.3803 22.5975C17.9573 22.8578 17.8254 23.4116 18.0856 23.8346L18.3529 24.2691C18.6132 24.6921 19.167 24.824 19.59 24.5638Z" fill="#FCD4D0"/>
<path d="M18.4814 23.3001L19.2023 24.0621" stroke="white" stroke-width="0.281014" stroke-linecap="square"/>
<path d="M22.7684 22.3262L22.8191 23.7531L22.3115 23.7737" stroke="white" stroke-width="0.281014" stroke-linecap="square"/>
<path d="M21.2557 24.2167C21.2137 24.2943 21.1875 24.3793 21.1784 24.4671C21.1693 24.5548 21.1776 24.6434 21.2028 24.7279C21.2279 24.8124 21.2695 24.8911 21.3251 24.9596C21.3807 25.028 21.4492 25.0848 21.5268 25.1268C21.6044 25.1687 21.6894 25.195 21.7771 25.2041C21.8648 25.2132 21.9535 25.2049 22.038 25.1797C22.1225 25.1546 22.2012 25.1129 22.2696 25.0574C22.3381 25.0018 22.3949 24.9333 22.4369 24.8557C22.6133 24.5292 22.27 24.3802 21.9415 24.2038C21.6131 24.0274 21.4321 23.8906 21.2557 24.2167Z" fill="white"/>
<path d="M19.7786 23.9588L20.4644 21.3828L20.6271 20.7732C20.78 20.937 20.9589 21.0744 21.1567 21.1797C21.8746 21.5661 24.0388 21.4122 24.3387 19.8946C24.5833 18.6571 23.2692 19.3684 22.5963 19.2911C21.5389 19.1691 20.8054 18.547 19.3575 19.3292C17.6258 20.2661 18.4461 22.5628 18.4461 22.5628C18.4461 22.5628 19.2082 22.2645 19.7786 23.9588Z" fill="#030319"/>
<path d="M21.3956 26.493L20.4785 26.4096L21.316 27.2268L21.3956 26.493Z" fill="#105D38"/>
<path d="M21.7899 23.097C21.929 23.097 22.0418 22.9842 22.0418 22.8451C22.0418 22.706 21.929 22.5933 21.7899 22.5933C21.6508 22.5933 21.5381 22.706 21.5381 22.8451C21.5381 22.9842 21.6508 23.097 21.7899 23.097Z" fill="white"/>
<path d="M23.2929 23.097C23.432 23.097 23.5447 22.9842 23.5447 22.8451C23.5447 22.706 23.432 22.5933 23.2929 22.5933C23.1538 22.5933 23.041 22.706 23.041 22.8451C23.041 22.9842 23.1538 23.097 23.2929 23.097Z" fill="white"/>
<path d="M37.0553 51.1412C35.4251 48.3187 33.7523 45.483 31.5255 43.0377C29.2987 40.5924 26.4539 38.531 23.1403 37.6773C22.3447 37.4688 21.3645 37.3861 20.8247 37.9817C20.4695 38.4052 20.4695 39.0141 20.5512 39.5567C20.8215 41.3743 21.5586 43.1041 22.6999 44.5995C23.57 45.7378 24.6604 46.7205 25.4879 47.8853C26.3154 49.05 26.8836 50.4861 26.5214 51.8394C24.4686 59.483 22.2915 68.0035 27.7325 74.0356C28.2566 74.6763 28.9182 75.2082 29.6752 75.5974C30.4003 75.8828 31.1728 76.0496 31.9588 76.0905C33.306 76.2184 34.6544 76.2868 36.004 76.2956C36.886 76.3504 37.7703 76.2274 38.5967 75.9349C40.9052 74.9654 41.2284 72.09 41.2177 69.7307C41.1893 63.2353 40.3547 56.869 37.0553 51.1412Z" fill="#FCD4D0"/>
<defs>
<linearGradient id="paint0_linear_544_56766" x1="51.7089" y1="23.4209" x2="-5.63737" y2="29.8935" gradientUnits="userSpaceOnUse">
<stop stop-opacity="0"/>
<stop offset="0.99"/>
</linearGradient>
<linearGradient id="paint1_linear_544_56766" x1="1860.38" y1="4584.24" x2="3066.94" y2="3718.7" gradientUnits="userSpaceOnUse">
<stop stop-opacity="0"/>
<stop offset="0.99"/>
</linearGradient>
<linearGradient id="paint2_linear_544_56766" x1="460.179" y1="2280.84" x2="1123.58" y2="4198.14" gradientUnits="userSpaceOnUse">
<stop stop-opacity="0"/>
<stop offset="0.99"/>
</linearGradient>
</defs>
</svg>
